<svg width="20" height="20" viewBox="0 0 20 20" fill="none" xmlns="http://www.w3.org/2000/svg">
<path d="M13.493 1.66675H6.50964C3.4763 1.66675 1.66797 3.47508 1.66797 6.50841V13.4834C1.66797 16.5251 3.4763 18.3334 6.50964 18.3334H13.4846C16.518 18.3334 18.3263 16.5251 18.3263 13.4917V6.50841C18.3346 3.47508 16.5263 1.66675 13.493 1.66675ZM11.6013 13.8584H7.5013C7.15964 13.8584 6.8763 13.5751 6.8763 13.2334C6.8763 12.8917 7.15964 12.6084 7.5013 12.6084H11.6013C12.668 12.6084 13.543 11.7417 13.543 10.6667C13.543 9.59175 12.6763 8.72508 11.6013 8.72508H7.3763L7.59297 8.94175C7.83463 9.18341 7.83463 9.58341 7.59297 9.82508C7.46797 9.95008 7.30964 10.0084 7.1513 10.0084C6.99297 10.0084 6.83464 9.95008 6.70964 9.82508L5.4013 8.51675C5.15964 8.27508 5.15964 7.87508 5.4013 7.63341L6.70964 6.32508C6.9513 6.08341 7.3513 6.08341 7.59297 6.32508C7.83463 6.56675 7.83463 6.96675 7.59297 7.20841L7.30964 7.48341H11.6013C13.3596 7.48341 14.793 8.91675 14.793 10.6751C14.793 12.4334 13.3596 13.8584 11.6013 13.8584Z" fill="white"/>
</svg>
