<svg width="20" height="20" viewBox="0 0 20 20" fill="none" xmlns="http://www.w3.org/2000/svg">
<path d="M16.6338 7.46675C16.0754 6.85008 15.2338 6.49175 14.0671 6.36675V5.73341C14.0671 4.59175 13.5838 3.49175 12.7338 2.72508C11.8754 1.94175 10.7588 1.57508 9.60044 1.68341C7.60877 1.87508 5.93377 3.80008 5.93377 5.88341V6.36675C4.76711 6.49175 3.92544 6.85008 3.36711 7.46675C2.55877 8.36675 2.58377 9.56675 2.67544 10.4001L3.25877 15.0417C3.43377 16.6667 4.09211 18.3334 7.67544 18.3334H12.3254C15.9088 18.3334 16.5671 16.6667 16.7421 15.0501L17.3254 10.3917C17.4171 9.56675 17.4338 8.36675 16.6338 7.46675ZM9.71711 2.84175C10.5504 2.76675 11.3421 3.02508 11.9588 3.58341C12.5671 4.13341 12.9088 4.91675 12.9088 5.73341V6.31675H7.09211V5.88341C7.09211 4.40008 8.31711 2.97508 9.71711 2.84175ZM7.01711 10.9584H7.00877C6.55044 10.9584 6.17544 10.5834 6.17544 10.1251C6.17544 9.66675 6.55044 9.29175 7.00877 9.29175C7.47544 9.29175 7.85044 9.66675 7.85044 10.1251C7.85044 10.5834 7.47544 10.9584 7.01711 10.9584ZM12.8504 10.9584H12.8421C12.3838 10.9584 12.0088 10.5834 12.0088 10.1251C12.0088 9.66675 12.3838 9.29175 12.8421 9.29175C13.3088 9.29175 13.6838 9.66675 13.6838 10.1251C13.6838 10.5834 13.3088 10.9584 12.8504 10.9584Z" fill="white"/>
</svg>
