<svg width="20" height="20" viewBox="0 0 20 20" fill="none" xmlns="http://www.w3.org/2000/svg">
<path d="M13.5413 18.7499C14.3468 18.7499 14.9997 18.097 14.9997 17.2916C14.9997 16.4862 14.3468 15.8333 13.5413 15.8333C12.7359 15.8333 12.083 16.4862 12.083 17.2916C12.083 18.097 12.7359 18.7499 13.5413 18.7499Z" fill="#292B2E"/>
<path d="M6.87533 18.7499C7.68074 18.7499 8.33366 18.097 8.33366 17.2916C8.33366 16.4862 7.68074 15.8333 6.87533 15.8333C6.06991 15.8333 5.41699 16.4862 5.41699 17.2916C5.41699 18.097 6.06991 18.7499 6.87533 18.7499Z" fill="#292B2E"/>
<path d="M4.03366 3.28341L3.86699 5.32508C3.83366 5.71675 4.14199 6.04175 4.53366 6.04175H17.292C17.642 6.04175 17.9337 5.77508 17.9587 5.42508C18.067 3.95008 16.942 2.75008 15.467 2.75008H5.22533C5.14199 2.38341 4.97533 2.03341 4.71699 1.74175C4.30033 1.30008 3.71699 1.04175 3.11699 1.04175H1.66699C1.32533 1.04175 1.04199 1.32508 1.04199 1.66675C1.04199 2.00841 1.32533 2.29175 1.66699 2.29175H3.11699C3.37533 2.29175 3.61699 2.40008 3.79199 2.58341C3.96699 2.77508 4.05033 3.02508 4.03366 3.28341Z" fill="#292B2E"/>
<path d="M17.0914 7.29175H4.30805C3.95805 7.29175 3.67472 7.55841 3.64139 7.90008L3.34139 11.5251C3.22472 12.9501 4.34139 14.1667 5.76639 14.1667H15.0331C16.2831 14.1667 17.3831 13.1417 17.4747 11.8917L17.7497 8.00008C17.7831 7.61675 17.4831 7.29175 17.0914 7.29175Z" fill="#292B2E"/>
</svg>
