<svg width="20" height="20" viewBox="0 0 20 20" fill="none" xmlns="http://www.w3.org/2000/svg">
<path d="M13.492 1.66699H6.50866C3.47533 1.66699 1.66699 3.47533 1.66699 6.50866V13.4837C1.66699 16.5253 3.47533 18.3337 6.50866 18.3337H13.4837C16.517 18.3337 18.3253 16.5253 18.3253 13.492V6.50866C18.3337 3.47533 16.5253 1.66699 13.492 1.66699ZM11.6003 13.8587H7.50033C7.15866 13.8587 6.87533 13.5753 6.87533 13.2337C6.87533 12.892 7.15866 12.6087 7.50033 12.6087H11.6003C12.667 12.6087 13.542 11.742 13.542 10.667C13.542 9.59199 12.6753 8.72533 11.6003 8.72533H7.37533L7.59199 8.94199C7.83366 9.18366 7.83366 9.58366 7.59199 9.82533C7.46699 9.95033 7.30866 10.0087 7.15033 10.0087C6.99199 10.0087 6.83366 9.95033 6.70866 9.82533L5.40033 8.51699C5.15866 8.27533 5.15866 7.87533 5.40033 7.63366L6.70866 6.32533C6.95033 6.08366 7.35033 6.08366 7.59199 6.32533C7.83366 6.56699 7.83366 6.96699 7.59199 7.20866L7.30866 7.48366H11.6003C13.3587 7.48366 14.792 8.91699 14.792 10.6753C14.792 12.4337 13.3587 13.8587 11.6003 13.8587Z" fill="#E91C24"/>
</svg>
