<svg width="24" height="24" viewBox="0 0 24 24" fill="none" xmlns="http://www.w3.org/2000/svg">
<path d="M12.0199 20.5302C9.68987 20.5302 7.35987 20.1602 5.14987 19.4202C4.30987 19.1302 3.66987 18.5402 3.38987 17.7702C3.09987 17.0002 3.19987 16.1502 3.65987 15.3902L4.80987 13.4802C5.04987 13.0802 5.26987 12.2802 5.26987 11.8102V8.92018C5.26987 5.20018 8.29987 2.17018 12.0199 2.17018C15.7399 2.17018 18.7699 5.20018 18.7699 8.92018V11.8102C18.7699 12.2702 18.9899 13.0802 19.2299 13.4902L20.3699 15.3902C20.7999 16.1102 20.8799 16.9802 20.5899 17.7702C20.2999 18.5602 19.6699 19.1602 18.8799 19.4202C16.6799 20.1602 14.3499 20.5302 12.0199 20.5302ZM12.0199 3.67018C9.12987 3.67018 6.76987 6.02018 6.76987 8.92018V11.8102C6.76987 12.5402 6.46987 13.6202 6.09987 14.2502L4.94987 16.1602C4.72987 16.5302 4.66987 16.9202 4.79987 17.2502C4.91987 17.5902 5.21987 17.8502 5.62987 17.9902C9.80987 19.3902 14.2399 19.3902 18.4199 17.9902C18.7799 17.8702 19.0599 17.6002 19.1899 17.2402C19.3199 16.8802 19.2899 16.4902 19.0899 16.1602L17.9399 14.2502C17.5599 13.6002 17.2699 12.5302 17.2699 11.8002V8.92018C17.2699 6.02018 14.9199 3.67018 12.0199 3.67018Z" fill="#220916"/>
<path d="M13.8799 3.94018C13.8099 3.94018 13.7399 3.93018 13.6699 3.91018C13.3799 3.83018 13.0999 3.77018 12.8299 3.73018C11.9799 3.62018 11.1599 3.68018 10.3899 3.91018C10.1099 4.00018 9.80987 3.91018 9.61987 3.70018C9.42987 3.49018 9.36987 3.19018 9.47987 2.92018C9.88987 1.87018 10.8899 1.18018 12.0299 1.18018C13.1699 1.18018 14.1699 1.86018 14.5799 2.92018C14.6799 3.19018 14.6299 3.49018 14.4399 3.70018C14.2899 3.86018 14.0799 3.94018 13.8799 3.94018Z" fill="#220916"/>
<path d="M12.0199 22.8102C11.0299 22.8102 10.0699 22.4102 9.36987 21.7102C8.66987 21.0102 8.26987 20.0502 8.26987 19.0602H9.76987C9.76987 19.6502 10.0099 20.2302 10.4299 20.6502C10.8499 21.0702 11.4299 21.3102 12.0199 21.3102C13.2599 21.3102 14.2699 20.3002 14.2699 19.0602H15.7699C15.7699 21.1302 14.0899 22.8102 12.0199 22.8102Z" fill="#220916"/>
</svg>
