<svg width="24" height="24" viewBox="0 0 24 24" fill="none" xmlns="http://www.w3.org/2000/svg">
<path d="M20.1902 14.0603L19.0602 12.1803C18.8102 11.7703 18.5902 10.9803 18.5902 10.5003V8.63029C18.5902 5.00029 15.6402 2.05029 12.0202 2.05029C8.3902 2.06029 5.4402 5.00029 5.4402 8.63029V10.4903C5.4402 10.9703 5.2202 11.7603 4.9802 12.1703L3.8502 14.0503C3.4202 14.7803 3.3202 15.6103 3.5902 16.3303C3.8602 17.0603 4.4702 17.6403 5.2702 17.9003C6.3502 18.2603 7.4402 18.5203 8.5502 18.7103C8.6602 18.7303 8.7702 18.7403 8.8802 18.7603C9.0202 18.7803 9.1702 18.8003 9.3202 18.8203C9.5802 18.8603 9.8402 18.8903 10.1102 18.9103C10.7402 18.9703 11.3802 19.0003 12.0202 19.0003C12.6502 19.0003 13.2802 18.9703 13.9002 18.9103C14.1302 18.8903 14.3602 18.8703 14.5802 18.8403C14.7602 18.8203 14.9402 18.8003 15.1202 18.7703C15.2302 18.7603 15.3402 18.7403 15.4502 18.7203C16.5702 18.5403 17.6802 18.2603 18.7602 17.9003C19.5302 17.6403 20.1202 17.0603 20.4002 16.3203C20.6802 15.5703 20.6002 14.7503 20.1902 14.0603ZM12.7502 10.0003C12.7502 10.4203 12.4102 10.7603 11.9902 10.7603C11.5702 10.7603 11.2302 10.4203 11.2302 10.0003V6.90029C11.2302 6.48029 11.5702 6.14029 11.9902 6.14029C12.4102 6.14029 12.7502 6.48029 12.7502 6.90029V10.0003Z" fill="#E91C24"/>
<path d="M14.8307 20.01C14.4107 21.17 13.3007 22 12.0007 22C11.2107 22 10.4307 21.68 9.88066 21.11C9.56066 20.81 9.32066 20.41 9.18066 20C9.31066 20.02 9.44066 20.03 9.58066 20.05C9.81066 20.08 10.0507 20.11 10.2907 20.13C10.8607 20.18 11.4407 20.21 12.0207 20.21C12.5907 20.21 13.1607 20.18 13.7207 20.13C13.9307 20.11 14.1407 20.1 14.3407 20.07C14.5007 20.05 14.6607 20.03 14.8307 20.01Z" fill="#E91C24"/>
</svg>
