<svg width="32" height="32" viewBox="0 0 32 32" fill="none" xmlns="http://www.w3.org/2000/svg">
<path d="M20.8127 7.33328V20.8799C20.8127 21.4133 20.6527 21.9333 20.3594 22.3733L16.7194 27.7866C16.146 28.6533 14.7194 29.2666 13.506 28.8133C12.1994 28.3733 11.3327 26.9066 11.6127 25.5999L12.306 21.2399C12.3594 20.8399 12.2527 20.4799 12.026 20.1999C11.7994 19.9466 11.466 19.7866 11.106 19.7866H5.62604C4.5727 19.7866 3.66604 19.3599 3.1327 18.6133C2.62604 17.8933 2.5327 16.9599 2.86604 16.0133L6.14604 6.02661C6.55937 4.37328 8.35937 3.02661 10.146 3.02661H15.346C16.2394 3.02661 17.4927 3.33328 18.066 3.90661L19.7727 5.22661C20.426 5.73328 20.8127 6.50661 20.8127 7.33328Z" fill="#D7D7D7"/>
<path d="M25.0532 23.4801H26.4265C28.4931 23.4801 29.3332 22.6801 29.3332 20.7068V7.30678C29.3332 5.33345 28.4931 4.53345 26.4265 4.53345H25.0532C22.9865 4.53345 22.1465 5.33345 22.1465 7.30678V20.7201C22.1465 22.6801 22.9865 23.4801 25.0532 23.4801Z" fill="#D7D7D7"/>
</svg>
