<svg width="40" height="37" viewBox="0 0 40 37" fill="none" xmlns="http://www.w3.org/2000/svg">
<path d="M15.5339 20.1455H20.6839V31.0675C20.6839 32.6755 22.8839 33.434 24.0505 32.2204L36.6672 19.1746C37.7672 18.0369 36.8839 16.2621 35.2172 16.2621H30.0672V5.34005C30.0672 3.73208 27.8672 2.9736 26.7005 4.18716L14.0839 17.2329C13.0005 18.3707 13.8839 20.1455 15.5339 20.1455Z" fill="#E91C24"/>
<path d="M14.1667 7.20585H2.5C1.81667 7.20585 1.25 6.69008 1.25 6.06813C1.25 5.44618 1.81667 4.93042 2.5 4.93042H14.1667C14.85 4.93042 15.4167 5.44618 15.4167 6.06813C15.4167 6.69008 14.85 7.20585 14.1667 7.20585Z" fill="#E91C24"/>
<path d="M12.5 31.4764H2.5C1.81667 31.4764 1.25 30.9606 1.25 30.3386C1.25 29.7167 1.81667 29.2009 2.5 29.2009H12.5C13.1833 29.2009 13.75 29.7167 13.75 30.3386C13.75 30.9606 13.1833 31.4764 12.5 31.4764Z" fill="#E91C24"/>
<path d="M7.5 19.3411H2.5C1.81667 19.3411 1.25 18.8253 1.25 18.2034C1.25 17.5814 1.81667 17.0657 2.5 17.0657H7.5C8.18333 17.0657 8.75 17.5814 8.75 18.2034C8.75 18.8253 8.18333 19.3411 7.5 19.3411Z" fill="#E91C24"/>
</svg>
