<svg width="20" height="21" viewBox="0 0 20 21" fill="none" xmlns="http://www.w3.org/2000/svg">
<path d="M16.6999 6.18324L11.8999 2.82491C10.5915 1.90824 8.5832 1.95824 7.32487 2.93324L3.14987 6.19157C2.31654 6.84157 1.6582 8.17491 1.6582 9.22491V14.9749C1.6582 17.0999 3.3832 18.8332 5.5082 18.8332H14.4915C16.6165 18.8332 18.3415 17.1082 18.3415 14.9832V9.33324C18.3415 8.20824 17.6165 6.82491 16.6999 6.18324ZM10.6249 15.4999C10.6249 15.8416 10.3415 16.1249 9.99987 16.1249C9.6582 16.1249 9.37487 15.8416 9.37487 15.4999V12.9999C9.37487 12.6582 9.6582 12.3749 9.99987 12.3749C10.3415 12.3749 10.6249 12.6582 10.6249 12.9999V15.4999Z" fill="#E91C24"/>
</svg>
