<svg width="36" height="37" viewBox="0 0 36 37" fill="none" xmlns="http://www.w3.org/2000/svg">
<rect y="0.600098" width="36" height="36" rx="18" fill="#E91C24"/>
<path d="M21.733 14.14L17.9663 12.1134C17.5663 11.9 17.093 11.9 16.693 12.1134L12.933 14.14C12.6597 14.2934 12.4863 14.5867 12.4863 14.9067C12.4863 15.2334 12.653 15.5267 12.933 15.6734L16.6997 17.7C16.8997 17.8067 17.1197 17.86 17.333 17.86C17.5463 17.86 17.773 17.8067 17.9663 17.7L21.733 15.6734C22.0063 15.5267 22.1797 15.2334 22.1797 14.9067C22.1797 14.5867 22.0063 14.2934 21.733 14.14Z" fill="white"/>
<path d="M16.0797 18.4068L12.5797 16.6602C12.3063 16.5202 11.9997 16.5402 11.7397 16.6935C11.4863 16.8535 11.333 17.1268 11.333 17.4268V20.7335C11.333 21.3068 11.653 21.8202 12.1663 22.0802L15.6663 23.8268C15.7863 23.8868 15.9197 23.9202 16.053 23.9202C16.2063 23.9202 16.3663 23.8735 16.5063 23.7935C16.7597 23.6335 16.913 23.3602 16.913 23.0602V19.7535C16.9063 19.1802 16.5863 18.6668 16.0797 18.4068Z" fill="white"/>
<path d="M23.3331 17.4268V19.0668C23.0131 18.9735 22.6731 18.9335 22.3331 18.9335C21.4264 18.9335 20.5398 19.2468 19.8398 19.8068C18.8798 20.5602 18.3331 21.7002 18.3331 22.9335C18.3331 23.2602 18.3731 23.5868 18.4598 23.9002C18.3598 23.8868 18.2598 23.8468 18.1664 23.7868C17.9131 23.6335 17.7598 23.3602 17.7598 23.0602V19.7535C17.7598 19.1802 18.0798 18.6668 18.5864 18.4068L22.0864 16.6602C22.3598 16.5202 22.6664 16.5402 22.9264 16.6935C23.1798 16.8535 23.3331 17.1268 23.3331 17.4268Z" fill="white"/>
<path d="M25.053 24.9334L24.493 24.3734C24.7863 23.9334 24.9597 23.4 24.9597 22.8334C24.9597 21.28 23.6997 20.02 22.1463 20.02C20.593 20.02 19.333 21.28 19.333 22.8334C19.333 24.3867 20.593 25.6467 22.1463 25.6467C22.713 25.6467 23.2463 25.4734 23.6863 25.18L24.2463 25.74C24.3597 25.8534 24.4997 25.9067 24.6463 25.9067C24.793 25.9067 24.9397 25.8534 25.0463 25.74C25.273 25.5134 25.273 25.1534 25.053 24.9334Z" fill="white"/>
</svg>
