<svg width="36" height="37" viewBox="0 0 36 37" fill="none" xmlns="http://www.w3.org/2000/svg">
<rect y="0.600098" width="36" height="36" rx="18" fill="#E91C24"/>
<path d="M23 13.0467C23 13.04 23 13.0333 22.9867 13.0267C22.84 12.84 22.6467 12.74 22.42 12.74C22.0667 12.74 21.64 12.9733 21.18 13.4667C20.6333 14.0533 19.7933 14.0067 19.3133 13.3667L18.64 12.4733C18.3733 12.1133 18.02 11.9333 17.6667 11.9333C17.3133 11.9333 16.96 12.1133 16.6933 12.4733L16.0133 13.3733C15.54 14.0067 14.7067 14.0533 14.16 13.4733L14.1533 13.4667C13.4 12.66 12.7267 12.54 12.3467 13.0267C12.3333 13.0333 12.3333 13.04 12.3333 13.0467C12.0933 13.56 12 14.28 12 15.2933V21.9067C12 22.92 12.0933 23.64 12.3333 24.1533C12.3333 24.16 12.34 24.1734 12.3467 24.18C12.7333 24.66 13.4 24.54 14.1533 23.7334L14.16 23.7267C14.7067 23.1467 15.54 23.1933 16.0133 23.8267L16.6933 24.7267C16.96 25.0867 17.3133 25.2667 17.6667 25.2667C18.02 25.2667 18.3733 25.0867 18.64 24.7267L19.3133 23.8334C19.7933 23.1933 20.6333 23.1467 21.18 23.7334C21.64 24.2267 22.0667 24.46 22.42 24.46C22.6467 24.46 22.84 24.3667 22.9867 24.18C22.9933 24.1734 23 24.16 23 24.1533C23.24 23.64 23.3333 22.92 23.3333 21.9067V15.2933C23.3333 14.28 23.24 13.56 23 13.0467ZM19.3333 20.2667H15.3333C15.06 20.2667 14.8333 20.04 14.8333 19.7667C14.8333 19.4934 15.06 19.2667 15.3333 19.2667H19.3333C19.6067 19.2667 19.8333 19.4934 19.8333 19.7667C19.8333 20.04 19.6067 20.2667 19.3333 20.2667ZM20.6667 17.9333H15.3333C15.06 17.9333 14.8333 17.7067 14.8333 17.4333C14.8333 17.16 15.06 16.9333 15.3333 16.9333H20.6667C20.94 16.9333 21.1667 17.16 21.1667 17.4333C21.1667 17.7067 20.94 17.9333 20.6667 17.9333Z" fill="white"/>
</svg>
