<svg width="36" height="37" viewBox="0 0 36 37" fill="none" xmlns="http://www.w3.org/2000/svg">
<rect y="0.600098" width="36" height="36" rx="18" fill="#E91C24"/>
<path d="M19.9003 13.2335V15.7668H18.9003V13.2335C18.9003 13.0535 18.7403 12.9668 18.6337 12.9668C18.6003 12.9668 18.567 12.9735 18.5337 12.9868L13.247 14.9801C12.8937 15.1135 12.667 15.4468 12.667 15.8268V16.2735C12.0603 16.7268 11.667 17.4535 11.667 18.2735V15.8268C11.667 15.0335 12.1537 14.3268 12.8937 14.0468L18.187 12.0468C18.3337 11.9935 18.487 11.9668 18.6337 11.9668C19.3003 11.9668 19.9003 12.5068 19.9003 13.2335Z" fill="white"/>
<path d="M24.3331 20.2667V20.9333C24.3331 21.1133 24.1931 21.26 24.0065 21.2667H23.0331C22.6798 21.2667 22.3598 21.0067 22.3331 20.66C22.3131 20.4533 22.3931 20.26 22.5265 20.1267C22.6465 20 22.8131 19.9333 22.9931 19.9333H23.9998C24.1931 19.94 24.3331 20.0867 24.3331 20.2667Z" fill="white"/>
<path d="M13.3337 20.6001C12.707 20.6001 12.127 20.8201 11.667 21.1868C11.0537 21.6734 10.667 22.4268 10.667 23.2668C10.667 23.7668 10.807 24.2401 11.0537 24.6401C11.5137 25.4134 12.3603 25.9334 13.3337 25.9334C14.007 25.9334 14.6203 25.6868 15.087 25.2668C15.2937 25.0934 15.4737 24.8801 15.6137 24.6401C15.8603 24.2401 16.0003 23.7668 16.0003 23.2668C16.0003 21.7934 14.807 20.6001 13.3337 20.6001ZM12.2803 22.9068C12.087 22.7134 12.087 22.3934 12.2803 22.2001C12.4803 22.0068 12.7937 22.0068 12.9937 22.2001L13.3403 22.5534L13.6737 22.2134C13.8737 22.0201 14.187 22.0201 14.387 22.2134C14.5803 22.4134 14.5803 22.7268 14.387 22.9268L14.047 23.2601L14.4003 23.6068C14.5937 23.8068 14.5937 24.1201 14.4003 24.3201C14.3003 24.4134 14.1737 24.4601 14.047 24.4601C13.9203 24.4601 13.7937 24.4134 13.6937 24.3201L13.3403 23.9668L12.9737 24.3334C12.8737 24.4334 12.747 24.4801 12.6203 24.4801C12.4937 24.4801 12.367 24.4334 12.267 24.3334C12.0737 24.1401 12.0737 23.8201 12.267 23.6268L12.6337 23.2601L12.2803 22.9068Z" fill="white"/>
<path d="M22.987 19.2335H23.667C24.0337 19.2335 24.3337 18.9335 24.3337 18.5668V18.2735C24.3337 16.8935 23.207 15.7668 21.827 15.7668H14.1737C13.607 15.7668 13.087 15.9535 12.667 16.2735C12.0603 16.7268 11.667 17.4535 11.667 18.2735V19.4602C11.667 19.7135 11.9337 19.8735 12.1737 19.7935C12.547 19.6668 12.9403 19.6002 13.3337 19.6002C15.3537 19.6002 17.0003 21.2468 17.0003 23.2668C17.0003 23.7468 16.8737 24.2735 16.6737 24.7402C16.567 24.9802 16.7337 25.2668 16.9937 25.2668H21.827C23.207 25.2668 24.3337 24.1402 24.3337 22.7602V22.6335C24.3337 22.2668 24.0337 21.9668 23.667 21.9668H23.087C22.447 21.9668 21.8337 21.5735 21.667 20.9535C21.5337 20.4468 21.6937 19.9535 22.027 19.6335C22.2737 19.3802 22.6137 19.2335 22.987 19.2335ZM19.3337 19.1002H16.0003C15.727 19.1002 15.5003 18.8735 15.5003 18.6002C15.5003 18.3268 15.727 18.1002 16.0003 18.1002H19.3337C19.607 18.1002 19.8337 18.3268 19.8337 18.6002C19.8337 18.8735 19.607 19.1002 19.3337 19.1002Z" fill="white"/>
</svg>
