<svg width="36" height="37" viewBox="0 0 36 37" fill="none" xmlns="http://www.w3.org/2000/svg">
<rect y="0.600098" width="36" height="36" rx="18" fill="#E91C24"/>
<path d="M20.8337 25.6002C21.478 25.6002 22.0003 25.0778 22.0003 24.4335C22.0003 23.7892 21.478 23.2668 20.8337 23.2668C20.1893 23.2668 19.667 23.7892 19.667 24.4335C19.667 25.0778 20.1893 25.6002 20.8337 25.6002Z" fill="white"/>
<path d="M15.4997 25.6002C16.144 25.6002 16.6663 25.0778 16.6663 24.4335C16.6663 23.7892 16.144 23.2668 15.4997 23.2668C14.8553 23.2668 14.333 23.7892 14.333 24.4335C14.333 25.0778 14.8553 25.6002 15.4997 25.6002Z" fill="white"/>
<path d="M13.2263 13.2267L13.093 14.86C13.0663 15.1733 13.313 15.4333 13.6263 15.4333H23.833C24.113 15.4333 24.3463 15.22 24.3663 14.94C24.453 13.76 23.553 12.8 22.373 12.8H14.1797C14.113 12.5067 13.9797 12.2267 13.773 11.9933C13.4397 11.64 12.973 11.4333 12.493 11.4333H11.333C11.0597 11.4333 10.833 11.66 10.833 11.9333C10.833 12.2067 11.0597 12.4333 11.333 12.4333H12.493C12.6997 12.4333 12.893 12.52 13.033 12.6667C13.173 12.82 13.2397 13.02 13.2263 13.2267Z" fill="white"/>
<path d="M23.6737 16.4333H13.447C13.167 16.4333 12.9404 16.6467 12.9137 16.92L12.6737 19.82C12.5804 20.96 13.4737 21.9333 14.6137 21.9333H22.027C23.027 21.9333 23.907 21.1134 23.9804 20.1134L24.2004 17C24.227 16.6933 23.987 16.4333 23.6737 16.4333Z" fill="white"/>
</svg>
