<svg width="36" height="37" viewBox="0 0 36 37" fill="none" xmlns="http://www.w3.org/2000/svg">
<rect y="0.600098" width="36" height="36" rx="18" fill="#E91C24"/>
<path d="M23.4735 15.8134L18.3401 18.7867C18.1335 18.9067 17.8735 18.9067 17.6601 18.7867L12.5268 15.8134C12.1601 15.6001 12.0668 15.1001 12.3468 14.7867C12.5401 14.5667 12.7601 14.3867 12.9935 14.2601L16.6068 12.2601C17.3801 11.8267 18.6335 11.8267 19.4068 12.2601L23.0201 14.2601C23.2535 14.3867 23.4735 14.5734 23.6668 14.7867C23.9335 15.1001 23.8401 15.6001 23.4735 15.8134Z" fill="white"/>
<path d="M17.6197 20.0268V24.5735C17.6197 25.0802 17.1063 25.4135 16.653 25.1935C15.2797 24.5202 12.9663 23.2602 12.9663 23.2602C12.153 22.8002 11.4863 21.6402 11.4863 20.6868V17.2468C11.4863 16.7202 12.0397 16.3868 12.493 16.6468L17.2863 19.4268C17.4863 19.5535 17.6197 19.7802 17.6197 20.0268Z" fill="white"/>
<path d="M18.3799 20.0268V24.5735C18.3799 25.0802 18.8932 25.4135 19.3465 25.1935C20.7199 24.5202 23.0332 23.2602 23.0332 23.2602C23.8465 22.8002 24.5132 21.6402 24.5132 20.6868V17.2468C24.5132 16.7202 23.9599 16.3868 23.5065 16.6468L18.7132 19.4268C18.5132 19.5535 18.3799 19.7802 18.3799 20.0268Z" fill="white"/>
</svg>
