<svg width="30" height="30" viewBox="0 0 30 30" fill="none" xmlns="http://www.w3.org/2000/svg">
<path d="M16 20C16 18.1144 16 17.1716 16.5858 16.5858C17.1716 16 18.1144 16 20 16H21C22.8856 16 23.8284 16 24.4142 16.5858C25 17.1716 25 18.1144 25 20C25 21.8856 25 22.8284 24.4142 23.4142C23.8284 24 22.8856 24 21 24H20C18.1144 24 17.1716 24 16.5858 23.4142C16 22.8284 16 21.8856 16 20Z" fill="#292B2E"/>
<path fill-rule="evenodd" clip-rule="evenodd" d="M13 6H17C20.7712 6 22.6569 6 23.8284 7.17157C24.7775 8.1206 24.9577 9.86626 24.992 12.4997C25.0042 13.4366 25.0102 13.905 24.7166 14.2025C24.4229 14.5 23.9486 14.5 23 14.5H20.5C17.6716 14.5 16.2574 14.5 15.3787 15.3787C14.5 16.2574 14.5 17.6716 14.5 20.5V22.5C14.5 22.9659 14.5 23.1989 14.4239 23.3827C14.3224 23.6277 14.1277 23.8224 13.8827 23.9239C13.6989 24 13.4659 24 13 24C9.22876 24 7.34315 24 6.17157 22.8284C5 21.6569 5 19.7712 5 16V14C5 10.2288 5 8.34315 6.17157 7.17157C7.34315 6 9.22876 6 13 6ZM11.0303 9.96967C10.7374 9.67678 10.2626 9.67678 9.96967 9.96967C9.67678 10.2626 9.67678 10.7374 9.96967 11.0303L12.6893 13.75H11.5C11.0858 13.75 10.75 14.0858 10.75 14.5C10.75 14.9142 11.0858 15.25 11.5 15.25H14.5C14.9142 15.25 15.25 14.9142 15.25 14.5V11.5C15.25 11.0858 14.9142 10.75 14.5 10.75C14.0858 10.75 13.75 11.0858 13.75 11.5V12.6893L11.0303 9.96967Z" fill="#292B2E"/>
</svg>
