<svg width="24" height="24" viewBox="0 0 24 24" fill="none" xmlns="http://www.w3.org/2000/svg">
<path d="M20.6009 4.1001V6.3001C20.6009 7.1001 20.1009 8.1001 19.6009 8.6001L15.3009 12.4001C14.7009 12.9001 14.3009 13.9001 14.3009 14.7001V19.0001C14.3009 19.6001 13.9009 20.4001 13.4009 20.7001L12.0009 21.6001C10.7009 22.4001 8.90086 21.5001 8.90086 19.9001V14.6001C8.90086 13.9001 8.50086 13.0001 8.10086 12.5001L7.63086 12.0101C7.32086 11.6801 7.26086 11.1801 7.51086 10.7901L12.6309 2.5701C12.8109 2.2801 13.1309 2.1001 13.4809 2.1001H18.6009C19.7009 2.1001 20.6009 3.0001 20.6009 4.1001Z" fill="#292B2E"/>
<path d="M10.3504 3.6301L6.80039 9.3201C6.46039 9.8701 5.68039 9.9501 5.23039 9.4801L4.30039 8.5001C3.80039 8.0001 3.40039 7.1001 3.40039 6.5001V4.2001C3.40039 3.0001 4.30039 2.1001 5.40039 2.1001H9.50039C10.2804 2.1001 10.7604 2.9601 10.3504 3.6301Z" fill="#292B2E"/>
</svg>
