<svg width="32" height="32" viewBox="0 0 32 32" fill="none" xmlns="http://www.w3.org/2000/svg">
<path d="M11.1875 24.6532V11.1066C11.1875 10.5732 11.3475 10.0532 11.6408 9.61322L15.2808 4.19989C15.8542 3.33322 17.2808 2.71989 18.4942 3.17322C19.8008 3.61322 20.6675 5.07989 20.3875 6.38655L19.6942 10.7466C19.6408 11.1466 19.7475 11.5066 19.9742 11.7866C20.2008 12.0399 20.5342 12.1999 20.8942 12.1999H26.3742C27.4275 12.1999 28.3342 12.6266 28.8675 13.3732C29.3742 14.0932 29.4675 15.0266 29.1342 15.9732L25.8542 25.9599C25.4408 27.6132 23.6408 28.9599 21.8542 28.9599H16.6542C15.7608 28.9599 14.5075 28.6532 13.9342 28.0799L12.2275 26.7599C11.5742 26.2666 11.1875 25.4799 11.1875 24.6532Z" fill="#D7D7D7"/>
<path d="M6.94602 8.50659H5.57268C3.50602 8.50659 2.66602 9.30659 2.66602 11.2799V24.6933C2.66602 26.6666 3.50602 27.4666 5.57268 27.4666H6.94602C9.01268 27.4666 9.85268 26.6666 9.85268 24.6933V11.2799C9.85268 9.30659 9.01268 8.50659 6.94602 8.50659Z" fill="#D7D7D7"/>
</svg>
