<svg width="40" height="40" viewBox="0 0 40 40" fill="none" xmlns="http://www.w3.org/2000/svg">
<path d="M33.5 11.5667C33.5 12.4667 33.0167 13.2833 32.25 13.7L29.35 15.2667L26.8833 16.5833L21.7667 19.35C21.2167 19.65 20.6167 19.8 20 19.8C19.3833 19.8 18.7833 19.65 18.2333 19.35L7.75 13.7C6.98333 13.2833 6.5 12.4667 6.5 11.5667C6.5 10.6667 6.98333 9.85001 7.75 9.43334L11.0333 7.66668L13.65 6.25001L18.2333 3.78334C19.3333 3.18334 20.6667 3.18334 21.7667 3.78334L32.25 9.43334C33.0167 9.85001 33.5 10.6667 33.5 11.5667Z" fill="#E91C24"/>
<path d="M16.4999 21.3167L6.74987 16.45C5.99987 16.0667 5.1332 16.1167 4.41654 16.55C3.69987 16.9833 3.2832 17.75 3.2832 18.5833V27.8C3.2832 29.4 4.16654 30.8333 5.59987 31.55L15.3499 36.4167C15.6832 36.5833 16.0499 36.6667 16.4165 36.6667C16.8499 36.6667 17.2832 36.55 17.6665 36.3C18.3832 35.8667 18.7999 35.1 18.7999 34.2667V25.05C18.8165 23.4667 17.9332 22.0333 16.4999 21.3167Z" fill="#E91C24"/>
<path d="M36.7169 18.5834V27.8C36.7169 29.3834 35.8336 30.8167 34.4003 31.5334L24.6503 36.4167C24.3169 36.5834 23.9503 36.6667 23.5836 36.6667C23.1503 36.6667 22.7169 36.55 22.3169 36.3C21.6169 35.8667 21.1836 35.1 21.1836 34.2667V25.0667C21.1836 23.4667 22.0669 22.0334 23.5003 21.3167L27.0836 19.5334L29.5836 18.2834L33.2503 16.45C34.0003 16.0667 34.8669 16.1 35.5836 16.55C36.2836 16.9834 36.7169 17.75 36.7169 18.5834Z" fill="#E91C24"/>
<path d="M29.3499 15.2667L26.8832 16.5833L11.0332 7.66667L13.6499 6.25L28.9499 14.8833C29.1165 14.9833 29.2499 15.1167 29.3499 15.2667Z" fill="white"/>
<path d="M29.582 18.2833V22.0667C29.582 22.75 29.0154 23.3167 28.332 23.3167C27.6487 23.3167 27.082 22.75 27.082 22.0667V19.5333L29.582 18.2833Z" fill="white"/>
</svg>
