<svg width="40" height="40" viewBox="0 0 40 40" fill="none" xmlns="http://www.w3.org/2000/svg">
<path fill-rule="evenodd" clip-rule="evenodd" d="M20.0007 36.6667C29.2054 36.6667 36.6673 29.2048 36.6673 20C36.6673 10.7953 29.2054 3.33337 20.0007 3.33337C10.7959 3.33337 3.33398 10.7953 3.33398 20C3.33398 29.2048 10.7959 36.6667 20.0007 36.6667ZM26.6673 23.4091V19.248C26.6673 15.6741 26.6673 13.8872 25.691 12.777C24.7147 11.6667 23.1433 11.6667 20.0007 11.6667C16.858 11.6667 15.2866 11.6667 14.3103 12.777C13.334 13.8872 13.334 15.6741 13.334 19.248V23.4091C13.334 25.9896 13.334 27.2798 13.8778 27.8436C14.1371 28.1125 14.4645 28.2814 14.8132 28.3263C15.5444 28.4204 16.3982 27.5708 18.106 25.8716C18.8608 25.1204 19.2382 24.7449 19.6749 24.6459C19.89 24.5972 20.1113 24.5972 20.3264 24.6459C20.7631 24.7449 21.1405 25.1204 21.8953 25.8716C23.6031 27.5708 24.4569 28.4204 25.1881 28.3263C25.5368 28.2814 25.8642 28.1125 26.1235 27.8436C26.6673 27.2798 26.6673 25.9896 26.6673 23.4091Z" fill="#E91C24"/>
</svg>
