<svg width="40" height="41" viewBox="0 0 40 41" fill="none" xmlns="http://www.w3.org/2000/svg">
<path fill-rule="evenodd" clip-rule="evenodd" d="M17.5819 35.9118L17.9987 35.2077C18.6666 34.0793 19.0005 33.5151 19.5325 33.2004C20.0645 32.8857 20.7584 32.8635 22.1463 32.8191C23.4476 32.7775 24.3223 32.6639 25.0701 32.3542C26.6446 31.702 27.8955 30.4511 28.5477 28.8766C29.0368 27.6957 29.0368 26.1987 29.0368 23.2047V21.9195C29.0368 17.7127 29.0368 15.6093 28.0899 14.0641C27.5601 13.1995 26.8331 12.4725 25.9685 11.9427C24.4233 10.9958 22.3199 10.9958 18.1131 10.9958H14.2577C10.0509 10.9958 7.94745 10.9958 6.40227 11.9427C5.53765 12.4725 4.81071 13.1995 4.28088 14.0641C3.33398 15.6093 3.33398 17.7127 3.33398 21.9195V23.2047C3.33398 26.1987 3.33398 27.6957 3.82311 28.8766C4.47528 30.4511 5.7262 31.702 7.30068 32.3542C8.0485 32.6639 8.92311 32.7775 10.2244 32.8191C11.6123 32.8635 12.3062 32.8857 12.8382 33.2004C13.3702 33.5151 13.7042 34.0793 14.3721 35.2077L14.7888 35.9118C15.4098 36.9609 16.961 36.9609 17.5819 35.9118ZM21.8079 23.8472C22.6951 23.8472 23.4143 23.128 23.4143 22.2408C23.4143 21.3536 22.6951 20.6344 21.8079 20.6344C20.9207 20.6344 20.2015 21.3536 20.2015 22.2408C20.2015 23.128 20.9207 23.8472 21.8079 23.8472ZM17.7918 22.2408C17.7918 23.128 17.0726 23.8472 16.1854 23.8472C15.2982 23.8472 14.579 23.128 14.579 22.2408C14.579 21.3536 15.2982 20.6344 16.1854 20.6344C17.0726 20.6344 17.7918 21.3536 17.7918 22.2408ZM10.5629 23.8472C11.4501 23.8472 12.1693 23.128 12.1693 22.2408C12.1693 21.3536 11.4501 20.6344 10.5629 20.6344C9.6757 20.6344 8.95647 21.3536 8.95647 22.2408C8.95647 23.128 9.6757 23.8472 10.5629 23.8472Z" fill="#E91C24"/>
<path d="M25.2834 3.3656C27.2029 3.36559 28.7293 3.36558 29.9535 3.48198C31.2088 3.60132 32.2701 3.8515 33.2155 4.43086C34.1882 5.02693 35.006 5.84474 35.6021 6.81743C36.1814 7.76286 36.4316 8.82417 36.5509 10.0794C36.6673 11.3036 36.6673 12.8301 36.6673 14.7496V16.0606C36.6673 17.4267 36.6673 18.5133 36.6072 19.3944C36.5457 20.2958 36.4173 21.0699 36.117 21.7947C35.3834 23.566 33.9761 24.9733 32.2048 25.707C32.1605 25.7253 32.116 25.7431 32.0712 25.7602C31.8574 25.8419 31.6743 25.9119 31.5134 25.9641C31.5368 25.1827 31.5368 24.2928 31.5368 23.2884V21.8013C31.5368 19.7986 31.5369 18.121 31.4072 16.7571C31.2715 15.3292 30.9761 13.9893 30.2215 12.7579C29.4855 11.5569 28.4758 10.5471 27.2748 9.81111C26.0434 9.05649 24.7034 8.76116 23.2756 8.6254C21.9117 8.49572 20.2341 8.49576 18.2314 8.49581H14.1394C12.7793 8.49577 11.5691 8.49574 10.5053 8.53635C10.5548 8.36461 10.6227 8.16774 10.7024 7.93666C10.838 7.54364 11.0093 7.17195 11.2265 6.81743C11.8226 5.84474 12.6404 5.02693 13.6131 4.43086C14.5585 3.8515 15.6198 3.60132 16.8751 3.48198C18.0993 3.36558 19.6257 3.36559 21.5452 3.3656H25.2834Z" fill="#E91C24"/>
</svg>
