<svg width="37" height="37" viewBox="0 0 37 37" fill="none" xmlns="http://www.w3.org/2000/svg">
<path opacity="0.5" d="M18.5007 3.0835C15.4515 3.0835 12.4709 3.98767 9.93562 5.68167C7.40036 7.37568 5.42437 9.78343 4.25752 12.6005C3.09066 15.4175 2.78536 18.5173 3.38022 21.5078C3.97507 24.4983 5.44337 27.2453 7.59943 29.4014C9.75549 31.5575 12.5025 33.0257 15.493 33.6206C18.4836 34.2155 21.5833 33.9102 24.4004 32.7433C27.2174 31.5765 29.6251 29.6005 31.3191 27.0652C33.0131 24.5299 33.9173 21.5493 33.9173 18.5002C33.9173 16.4756 33.5186 14.4709 32.7438 12.6005C31.969 10.73 30.8335 9.0305 29.4019 7.59893C27.9703 6.16736 26.2708 5.03178 24.4004 4.25702C22.5299 3.48226 20.5252 3.0835 18.5007 3.0835ZM18.5007 30.8335C16.0614 30.8335 13.6768 30.1102 11.6486 28.755C9.62042 27.3997 8.03962 25.4735 7.10614 23.2199C6.17266 20.9663 5.92842 18.4865 6.40431 16.094C6.88019 13.7016 8.05483 11.504 9.77967 9.77918C11.5045 8.05433 13.7021 6.8797 16.0945 6.40381C18.487 5.92793 20.9668 6.17217 23.2204 7.10565C25.474 8.03913 27.4002 9.61992 28.7554 11.6481C30.1107 13.6763 30.834 16.0609 30.834 18.5002C30.834 21.7712 29.5346 24.9082 27.2216 27.2211C24.9087 29.5341 21.7717 30.8335 18.5007 30.8335ZM24.6673 16.9585H12.334C11.9251 16.9585 11.533 17.1209 11.2439 17.41C10.9547 17.6992 10.7923 18.0913 10.7923 18.5002C10.7923 18.909 10.9547 19.3012 11.2439 19.5903C11.533 19.8794 11.9251 20.0418 12.334 20.0418H24.6673C25.0762 20.0418 25.4683 19.8794 25.7574 19.5903C26.0466 19.3012 26.209 18.909 26.209 18.5002C26.209 18.0913 26.0466 17.6992 25.7574 17.41C25.4683 17.1209 25.0762 16.9585 24.6673 16.9585Z" fill="#292B2E"/>
</svg>
