<svg width="72" height="72" viewBox="0 0 72 72" fill="none" xmlns="http://www.w3.org/2000/svg">
<path d="M30 50.8501H18.63C8.52 50.8501 6 48.3301 6 38.2201V20.2201C6 10.1101 8.52 7.59009 18.63 7.59009H50.22C60.33 7.59009 62.85 10.1101 62.85 20.2201" stroke="#E91C24" stroke-width="4.5" stroke-linecap="round" stroke-linejoin="round"/>
<path d="M30 64.4098V50.8499" stroke="#E91C24" stroke-width="4.5" stroke-linecap="round" stroke-linejoin="round"/>
<path d="M6 38.8499H30" stroke="#E91C24" stroke-width="4.5" stroke-linecap="round" stroke-linejoin="round"/>
<path d="M20.2188 64.4099H29.9988" stroke="#E91C24" stroke-width="4.5" stroke-linecap="round" stroke-linejoin="round"/>
<path d="M65.9979 38.4V55.53C65.9979 62.64 64.2279 64.41 57.1179 64.41H46.4679C39.3579 64.41 37.5879 62.64 37.5879 55.53V38.4C37.5879 31.29 39.3579 29.52 46.4679 29.52H57.1179C64.2279 29.52 65.9979 31.29 65.9979 38.4Z" stroke="#E91C24" stroke-width="4.5" stroke-linecap="round" stroke-linejoin="round"/>
<path d="M51.7335 54.75H51.7605" stroke="#E91C24" stroke-width="6" stroke-linecap="round" stroke-linejoin="round"/>
</svg>
