<svg width="40" height="40" viewBox="0 0 40 40" fill="none" xmlns="http://www.w3.org/2000/svg">
<g clip-path="url(#clip0_3255_11633)">
<path d="M39.9011 19.739C39.9011 18.6326 39.7628 17.5545 39.6838 16.468C38.7955 11.525 36.0796 7.09725 32.0761 4.06502C28.0727 1.03278 23.0747 -0.381901 18.0759 0.102187C13.0772 0.586275 8.44355 2.93369 5.0963 6.67777C1.74904 10.4219 -0.0667491 15.2884 0.00989973 20.31C0.0865486 25.3316 2.05002 30.1405 5.50999 33.7807C8.96996 37.4209 13.673 39.6258 18.6843 39.9571C23.6955 40.2883 28.6479 38.7218 32.557 35.5688C36.4661 32.4158 39.0455 27.9072 39.7826 22.9394C39.8108 21.8726 39.9209 20.803 39.9011 19.739Z" fill="#FF7A5A"/>
<path d="M39.9013 19.739C39.9013 18.7173 39.7799 17.7154 39.7009 16.7107L31.1381 17.8227L21.8246 19.2338L15.2544 32.9331L26.662 38.8598C30.0894 37.6466 33.1216 35.5228 35.4332 32.7165C37.7447 29.9101 39.2484 26.5273 39.7827 22.931C39.8138 21.8642 39.921 20.8002 39.9013 19.739Z" fill="#ED6D54"/>
<path d="M10.4619 16.1914V24.9912H26.848V16.1914H10.4619ZM25.6711 22.6121C25.4773 22.612 25.287 22.6646 25.1207 22.7643C24.9544 22.8639 24.8184 23.0069 24.7271 23.1779C24.6358 23.3489 24.5927 23.5416 24.6023 23.7352C24.612 23.9288 24.6742 24.1162 24.7821 24.2772H12.954C13.0598 24.0642 13.0917 23.8221 13.0446 23.589C12.9974 23.3559 12.8739 23.1451 12.6936 22.9901C12.5133 22.835 12.2864 22.7445 12.0489 22.7327C11.8113 22.721 11.5767 22.7888 11.382 22.9253V18.5028C11.5687 18.6494 11.7993 18.7289 12.0367 18.7286C12.2328 18.7271 12.4247 18.6718 12.5914 18.5686C12.7581 18.4655 12.8933 18.3185 12.9821 18.1437C13.0709 17.969 13.11 17.7731 13.0951 17.5776C13.0802 17.3822 13.0119 17.1945 12.8975 17.0353H24.7144C24.6241 17.2179 24.5879 17.4225 24.61 17.625C24.6321 17.8275 24.7115 18.0195 24.839 18.1784C24.9665 18.3373 25.1367 18.4565 25.3296 18.522C25.5225 18.5875 25.7301 18.5965 25.9279 18.548V22.6572C25.8448 22.6305 25.7584 22.6153 25.6711 22.6121Z" fill="#00B7A5"/>
<path d="M18.7539 21.0625V22.3861C18.8872 22.3441 19.0012 22.2561 19.0756 22.1378C19.1448 22.0057 19.1779 21.8578 19.1716 21.7088C19.1792 21.5665 19.1373 21.4259 19.0531 21.3109C18.9693 21.2105 18.8679 21.1264 18.7539 21.0625Z" fill="white"/>
<path d="M25.6715 18.5621C25.4894 18.5625 25.3103 18.5164 25.1511 18.428C24.992 18.3396 24.8581 18.212 24.7622 18.0573C24.6663 17.9025 24.6116 17.7258 24.6033 17.544C24.595 17.3621 24.6333 17.1811 24.7147 17.0183H12.8979C13.0122 17.1776 13.0806 17.3652 13.0955 17.5607C13.1104 17.7562 13.0713 17.952 12.9825 18.1268C12.8936 18.3015 12.7584 18.4485 12.5917 18.5517C12.425 18.6548 12.2331 18.7102 12.0371 18.7117C11.7997 18.712 11.5691 18.6325 11.3823 18.4859V22.9084C11.577 22.7718 11.8117 22.7041 12.0492 22.7158C12.2868 22.7275 12.5136 22.8181 12.6939 22.9731C12.8742 23.1282 12.9977 23.3389 13.0449 23.572C13.0921 23.8051 13.0602 24.0473 12.9543 24.2603H24.7824C24.6745 24.0992 24.6124 23.9119 24.6027 23.7182C24.593 23.5246 24.6361 23.332 24.7274 23.161C24.8187 22.99 24.9548 22.847 25.1211 22.7473C25.2874 22.6476 25.4776 22.595 25.6715 22.5951C25.7582 22.5947 25.8446 22.6061 25.9283 22.629V18.5367C25.844 18.5554 25.7578 18.5639 25.6715 18.5621ZM16.358 20.8199C16.2781 20.7842 16.1915 20.7659 16.104 20.7663C15.7568 20.7663 15.3815 21.0654 14.9751 21.2517C14.858 21.3045 14.7309 21.3314 14.6025 21.3307C14.1877 21.3307 13.8377 21.0683 13.4595 20.8058C13.3768 20.7486 13.2778 20.7199 13.1773 20.7239C12.9694 20.7357 12.7672 20.7966 12.5874 20.9018C12.4888 20.9556 12.3944 21.0169 12.3052 21.0852L12.1584 20.8961C12.4566 20.6671 12.812 20.5246 13.1857 20.4841C13.3358 20.4808 13.4831 20.5252 13.6063 20.6111C13.9816 20.8792 14.309 21.0965 14.611 21.0937C14.7082 21.094 14.8044 21.0738 14.8932 21.0344C15.2658 20.8792 15.6496 20.5349 16.1237 20.5292C16.2431 20.5286 16.3613 20.5526 16.4709 20.5998L16.358 20.8199ZM16.3947 20.1454C16.3144 20.1113 16.2279 20.094 16.1407 20.0946C15.7935 20.0946 15.421 20.3937 15.0118 20.58C14.8932 20.6312 14.7655 20.6581 14.6364 20.659C14.2215 20.659 13.8716 20.3937 13.4934 20.1313C13.4103 20.075 13.3115 20.0463 13.2111 20.0494C13.0023 20.063 12.7994 20.1249 12.6185 20.2301C12.5197 20.2836 12.4253 20.3449 12.3363 20.4135L12.1895 20.2244C12.4881 19.9944 12.8447 19.8518 13.2196 19.8124C13.3683 19.8098 13.5142 19.8531 13.6373 19.9365C14.0155 20.2046 14.3401 20.4248 14.642 20.422C14.7394 20.4215 14.8356 20.4003 14.9243 20.3599C15.2968 20.2075 15.6806 19.8632 16.1548 19.8547C16.2752 19.8551 16.3943 19.8801 16.5047 19.9281L16.3947 20.1454ZM19.4992 22.4625C19.3073 22.6649 19.044 22.7844 18.7654 22.7955V23.2922H18.4098V22.8181H18.3815C18.2107 22.8185 18.04 22.8072 17.8707 22.7842C17.7425 22.7664 17.6161 22.7381 17.4925 22.6995V22.4342H18.4098V20.8679C18.3006 20.8171 18.1906 20.7606 18.0796 20.6985C17.9679 20.6384 17.8676 20.5591 17.7832 20.4643C17.6921 20.3635 17.6204 20.2468 17.5716 20.12C17.5138 19.958 17.487 19.7867 17.4925 19.6148C17.4761 19.3492 17.5541 19.0863 17.7127 18.8725C17.8956 18.6816 18.1456 18.5693 18.4098 18.5593V18.0738H18.7541V18.5621C18.9065 18.5621 19.0363 18.5875 19.1803 18.6072C19.2871 18.6236 19.3927 18.6472 19.4963 18.6778V18.96H18.7541V20.501C18.867 20.5518 18.9799 20.6054 19.0928 20.6647C19.2061 20.7227 19.3091 20.7989 19.3976 20.8905C19.4918 20.9872 19.5666 21.1013 19.6177 21.2263C19.6808 21.3811 19.7106 21.5475 19.7052 21.7146C19.7187 21.9877 19.6391 22.2574 19.4794 22.4794L19.4992 22.4625ZM25.011 20.8199C24.9303 20.7839 24.8427 20.7656 24.7542 20.7663C24.4099 20.7663 24.0346 21.0654 23.6253 21.2517C23.5074 21.3048 23.3793 21.3318 23.25 21.3307C22.8379 21.3307 22.4851 21.0683 22.121 20.8058C22.0384 20.7486 21.9393 20.7199 21.8388 20.7239C21.6309 20.7357 21.4287 20.7966 21.249 20.9018C21.1507 20.9561 21.0564 21.0174 20.9667 21.0852L20.8228 20.8961C21.121 20.6671 21.4764 20.5246 21.8501 20.4841C22.0001 20.4811 22.1473 20.5256 22.2706 20.6111C22.646 20.8792 22.9734 21.0965 23.2725 21.0937C23.3697 21.0939 23.4659 21.0737 23.5548 21.0344C23.9245 20.8792 24.3083 20.5349 24.7824 20.5292C24.9027 20.5283 25.0219 20.5524 25.1324 20.5998L25.011 20.8199ZM25.0477 20.1454C24.9674 20.1115 24.881 20.0942 24.7937 20.0946C24.4466 20.0946 24.0712 20.3937 23.6648 20.58C23.5474 20.6315 23.4206 20.6584 23.2923 20.659C22.8774 20.659 22.5275 20.3937 22.1493 20.1313C22.0661 20.0751 21.9674 20.0465 21.867 20.0494C21.6592 20.0635 21.4573 20.1253 21.2772 20.2301C21.1779 20.2828 21.0835 20.3442 20.995 20.4135L20.8482 20.2244C21.1456 19.9941 21.5014 19.8514 21.8755 19.8124C22.0251 19.8094 22.172 19.8527 22.296 19.9365C22.6714 20.2046 22.9988 20.4248 23.3008 20.422C23.3981 20.4212 23.4943 20.4001 23.583 20.3599C23.9555 20.2075 24.3393 19.8632 24.8135 19.8547C24.933 19.8551 25.0512 19.8801 25.1606 19.9281L25.0477 20.1454Z" fill="white"/>
<path d="M18.0062 19.6317C17.9969 19.777 18.0345 19.9214 18.1134 20.0437C18.1887 20.1487 18.2847 20.2371 18.3957 20.3034V19.0051C18.2686 19.0488 18.1605 19.135 18.0895 19.2491C18.0186 19.3633 17.9891 19.4984 18.0062 19.6317Z" fill="white"/>
<path d="M14.9018 20.3767C14.8131 20.4172 14.717 20.4383 14.6195 20.4388C14.3176 20.4388 13.993 20.2215 13.6148 19.9534C13.4917 19.87 13.3458 19.8266 13.1971 19.8292C12.8222 19.8686 12.4656 20.0113 12.167 20.2413L12.3137 20.4304C12.4028 20.3618 12.4971 20.3004 12.596 20.2469C12.7769 20.1417 12.9798 20.0799 13.1887 20.0663C13.289 20.0632 13.3878 20.0918 13.4709 20.1481C13.8491 20.4106 14.199 20.6731 14.6139 20.6759C14.743 20.6749 14.8707 20.6481 14.9893 20.5969C15.4041 20.4106 15.7767 20.103 16.1182 20.1114C16.2054 20.1108 16.2919 20.1281 16.3722 20.1622L16.4681 19.9449C16.3577 19.8969 16.2386 19.872 16.1182 19.8716C15.6497 19.88 15.2743 20.2243 14.9018 20.3767Z" fill="#00B7A5"/>
<path d="M14.8647 21.0512C14.7758 21.0906 14.6796 21.1108 14.5824 21.1105C14.2805 21.1105 13.9531 20.896 13.5777 20.6279C13.4545 20.5421 13.3073 20.4976 13.1572 20.5009C12.7834 20.5414 12.428 20.684 12.1299 20.913L12.2766 21.102C12.3659 21.0338 12.4602 20.9724 12.5589 20.9186C12.7386 20.8135 12.9408 20.7525 13.1487 20.7408C13.2492 20.7367 13.3483 20.7654 13.431 20.8226C13.8091 21.0851 14.1591 21.3448 14.574 21.3476C14.7024 21.3483 14.8294 21.3213 14.9465 21.2686C15.3614 21.0823 15.7367 20.7775 16.0754 20.7831C16.1629 20.7827 16.2495 20.801 16.3294 20.8368L16.4225 20.6166C16.3129 20.5694 16.1948 20.5454 16.0754 20.5461C15.621 20.5517 15.2372 20.896 14.8647 21.0512Z" fill="#00B7A5"/>
<path d="M23.5517 20.3768C23.463 20.4169 23.3668 20.4381 23.2694 20.4389C22.9675 20.4389 22.6401 20.2215 22.2647 19.9534C22.1407 19.8696 21.9938 19.8263 21.8442 19.8292C21.4701 19.8683 21.1143 20.011 20.8169 20.2413L20.9636 20.4304C21.0521 20.3611 21.1466 20.2997 21.2459 20.2469C21.426 20.1422 21.6278 20.0804 21.8357 20.0663C21.9361 20.0634 22.0348 20.092 22.118 20.1482C22.4961 20.4106 22.8461 20.6731 23.261 20.6759C23.3893 20.6753 23.516 20.6484 23.6335 20.5969C24.0484 20.4106 24.4237 20.103 24.7624 20.1115C24.8496 20.1111 24.9361 20.1284 25.0164 20.1623L25.1096 19.945C25.0001 19.897 24.8819 19.872 24.7624 19.8716C24.2996 19.8801 23.9157 20.2244 23.5517 20.3768Z" fill="#00B7A5"/>
<path d="M23.5069 21.0512C23.418 21.0905 23.3218 21.1107 23.2246 21.1105C22.9255 21.1105 22.5981 20.896 22.2227 20.6279C22.0994 20.5424 21.9522 20.498 21.8022 20.5009C21.4285 20.5414 21.0731 20.6839 20.7749 20.9129L20.9188 21.102C21.0085 21.0343 21.1028 20.973 21.2011 20.9186C21.3808 20.8134 21.583 20.7525 21.7909 20.7408C21.8914 20.7367 21.9905 20.7654 22.0731 20.8226C22.4485 21.0851 22.8013 21.3447 23.2021 21.3475C23.3314 21.3486 23.4595 21.3216 23.5774 21.2685C23.9923 21.0823 24.3677 20.7774 24.7063 20.7831C24.7948 20.7824 24.8824 20.8007 24.9631 20.8367L25.0563 20.6166C24.9457 20.5692 24.8266 20.5452 24.7063 20.546C24.2604 20.5517 23.8766 20.896 23.5069 21.0512Z" fill="#00B7A5"/>
<path d="M19.3892 20.8875C19.3007 20.796 19.1977 20.7197 19.0844 20.6617C18.9715 20.6025 18.8586 20.5488 18.7457 20.498V18.9571H19.488V18.6748C19.3843 18.6442 19.2787 18.6206 19.1719 18.6043C19.0392 18.5845 18.8896 18.5676 18.7457 18.5591V18.0793H18.3901V18.5648C18.1259 18.5748 17.8759 18.6871 17.693 18.878C17.5344 19.0918 17.4564 19.3547 17.4729 19.6203C17.4674 19.7922 17.4942 19.9635 17.5519 20.1255C17.6007 20.2523 17.6724 20.369 17.7635 20.4698C17.8479 20.5646 17.9482 20.6439 18.0599 20.7041C18.169 20.7661 18.2791 20.8226 18.3901 20.8734V22.4397H17.4729V22.705C17.5964 22.7436 17.7229 22.7719 17.851 22.7897C18.0203 22.8127 18.191 22.824 18.3619 22.8236H18.3901V23.2977H18.7542V22.801C19.0328 22.7899 19.2961 22.6704 19.488 22.468C19.6452 22.2441 19.7219 21.9734 19.7053 21.7003C19.7107 21.5332 19.6809 21.3669 19.6178 21.2121C19.5628 21.0904 19.4853 20.9802 19.3892 20.8875ZM18.3901 20.3033C18.2792 20.2371 18.1831 20.1487 18.1079 20.0436C18.0289 19.9213 17.9913 19.7769 18.0006 19.6316C17.9832 19.499 18.0118 19.3645 18.0817 19.2504C18.1516 19.1364 18.2584 19.0498 18.3844 19.005L18.3901 20.3033ZM19.0674 22.1378C18.993 22.2561 18.879 22.3441 18.7457 22.3861V21.0625C18.8597 21.1263 18.9611 21.2105 19.0449 21.3108C19.1291 21.4258 19.171 21.5664 19.1634 21.7088C19.1697 21.8577 19.1366 22.0057 19.0674 22.1378Z" fill="#00B7A5"/>
<path d="M9.19775 20.5942L11.1733 29.1682L27.1389 25.4852L25.1633 16.9111L9.19775 20.5942ZM25.4597 23.4334C25.2706 23.4764 25.0969 23.5701 24.9571 23.7044C24.8173 23.8387 24.7168 24.0086 24.6663 24.1958C24.6158 24.383 24.6172 24.5804 24.6705 24.7668C24.7238 24.9532 24.8268 25.1215 24.9686 25.2538L13.4424 27.9123C13.4806 27.7518 13.4806 27.5846 13.4424 27.4241C13.3983 27.2335 13.3027 27.0586 13.1661 26.9185C13.0295 26.7784 12.8571 26.6785 12.6676 26.6296C12.4782 26.5807 12.2789 26.5847 12.0916 26.6412C11.9043 26.6977 11.736 26.8045 11.6051 26.9499L10.6117 22.6403C10.8451 22.7422 11.1073 22.7572 11.3507 22.6826C11.5942 22.608 11.803 22.4488 11.9394 22.2337C12.0757 22.0186 12.1306 21.7619 12.0942 21.5098C12.0577 21.2578 11.9323 21.0271 11.7406 20.8595L23.2555 18.2009C23.2129 18.3779 23.2163 18.5629 23.2652 18.7382C23.3141 18.9136 23.407 19.0735 23.535 19.203C23.663 19.3324 23.822 19.427 23.9968 19.4779C24.1716 19.5287 24.3565 19.5341 24.5339 19.4935C24.6193 19.474 24.7018 19.4437 24.7795 19.4032L25.7024 23.408C25.6207 23.4068 25.5393 23.4153 25.4597 23.4334Z" fill="#00B7A5"/>
<path d="M18.3643 23.4785L18.6634 24.7683C18.7827 24.6967 18.8735 24.586 18.9202 24.455C18.9583 24.3107 18.9583 24.159 18.9202 24.0147C18.896 23.8739 18.8231 23.746 18.7142 23.6535C18.6096 23.5736 18.4909 23.5143 18.3643 23.4785Z" fill="white"/>
<path d="M24.5511 19.4933C24.3736 19.5339 24.1887 19.5285 24.0139 19.4776C23.8391 19.4268 23.6802 19.3322 23.5522 19.2027C23.4242 19.0733 23.3313 18.9133 23.2824 18.738C23.2334 18.5626 23.2301 18.3777 23.2726 18.2007L11.7578 20.8593C11.9308 21.0055 12.0524 21.2033 12.1049 21.4237C12.1508 21.6188 12.1408 21.8228 12.0761 22.0124C12.0114 22.202 11.8947 22.3696 11.7392 22.496C11.5837 22.6223 11.3957 22.7023 11.1969 22.7268C10.998 22.7513 10.7963 22.7193 10.6147 22.6345L11.6082 26.9441C11.7663 26.7655 11.9797 26.6451 12.2143 26.6021C12.4489 26.5591 12.6912 26.5959 12.9024 26.7067C13.1136 26.8175 13.2816 26.9959 13.3795 27.2134C13.4774 27.4309 13.4997 27.6749 13.4427 27.9065L24.9632 25.2535C24.8214 25.1213 24.7183 24.9529 24.6651 24.7665C24.6118 24.5801 24.6104 24.3827 24.6608 24.1956C24.7113 24.0084 24.8119 23.8385 24.9517 23.7042C25.0915 23.5699 25.2652 23.4762 25.4542 23.4332C25.5393 23.4137 25.6266 23.4052 25.7139 23.4078L24.7966 19.4086C24.7187 19.4472 24.6362 19.4756 24.5511 19.4933ZM15.9771 23.7972C15.8915 23.7788 15.803 23.7788 15.7174 23.7972C15.3787 23.8678 15.0824 24.2516 14.7211 24.5254C14.6178 24.603 14.4996 24.6587 14.374 24.6891C13.9704 24.7766 13.5697 24.6016 13.1435 24.4294C13.0531 24.396 12.9546 24.391 12.8613 24.4153C12.6609 24.4744 12.4772 24.5798 12.325 24.7229C12.2382 24.7977 12.157 24.8788 12.0823 24.9657L11.8989 24.8161C12.1364 24.5242 12.4514 24.3051 12.8076 24.1839C12.9525 24.1459 13.1056 24.1548 13.2451 24.2093C13.6713 24.3871 14.0382 24.5282 14.3317 24.4548C14.4261 24.434 14.5147 24.3925 14.5913 24.3335C14.9187 24.0992 15.215 23.6787 15.6751 23.5658C15.7924 23.5416 15.9134 23.5416 16.0307 23.5658L15.9771 23.7972ZM15.8642 23.134C15.7785 23.117 15.6902 23.117 15.6045 23.134C15.263 23.2074 14.9695 23.5912 14.6054 23.865C14.5022 23.9423 14.384 23.9971 14.2583 24.0258C13.8547 24.1162 13.4539 23.9412 13.0278 23.769C12.9374 23.736 12.8393 23.7301 12.7456 23.7521C12.5461 23.8129 12.3635 23.9191 12.2122 24.0625C12.1238 24.1357 12.0426 24.2169 11.9694 24.3053L11.7832 24.1528C12.022 23.8624 12.3365 23.6436 12.6919 23.5207C12.8372 23.4851 12.9899 23.4949 13.1294 23.5489C13.5584 23.7267 13.9253 23.865 14.216 23.7944C14.3101 23.7729 14.3987 23.7315 14.4756 23.6731C14.803 23.4388 15.1022 23.0155 15.5622 22.9026C15.6795 22.8785 15.8005 22.8785 15.9178 22.9026L15.8642 23.134ZM19.3976 24.6947C19.2561 24.9338 19.0275 25.1087 18.7598 25.183L18.8699 25.6684L18.5227 25.7474L18.4183 25.2874H18.3873C18.2212 25.3268 18.0523 25.3533 17.8821 25.3664C17.7535 25.3788 17.624 25.3788 17.4954 25.3664L17.4333 25.1068L18.3308 24.9007L17.978 23.3739C17.8595 23.3485 17.7381 23.3175 17.6168 23.2836C17.4947 23.2495 17.3793 23.1951 17.2753 23.1227C17.1648 23.0467 17.0691 22.951 16.9931 22.8405C16.8999 22.6959 16.8348 22.535 16.8012 22.3664C16.7256 22.1098 16.7436 21.8348 16.852 21.5902C16.9867 21.3638 17.2044 21.1988 17.4587 21.1302L17.3515 20.6561L17.6986 20.577L17.8059 21.0455C17.946 21.0209 18.0873 21.004 18.2292 20.9947C18.3373 20.9878 18.4457 20.9878 18.5538 20.9947L18.6131 21.2572L17.8934 21.4237L18.2377 22.9252L18.6046 23.0098C18.729 23.0404 18.8474 23.0919 18.9545 23.1622C19.0655 23.2377 19.1613 23.3335 19.2368 23.4445C19.3313 23.5821 19.3966 23.7378 19.4287 23.9017C19.5086 24.1619 19.4977 24.4416 19.3976 24.6947ZM24.3987 21.8555C24.3131 21.837 24.2246 21.837 24.1391 21.8555C23.7976 21.9261 23.504 22.3099 23.14 22.5837C23.0374 22.6621 22.9189 22.717 22.7928 22.7445C22.3892 22.8348 21.9885 22.6599 21.5623 22.4877C21.472 22.4542 21.3738 22.4483 21.2801 22.4708C21.0731 22.5329 20.8843 22.6443 20.7298 22.7953C20.6421 22.8692 20.5609 22.9504 20.487 23.038L20.3008 22.8856C20.542 22.5965 20.857 22.378 21.2124 22.2535C21.3567 22.2179 21.5085 22.2278 21.647 22.2817C22.076 22.4595 22.4429 22.5978 22.7336 22.5272C22.8278 22.5057 22.9163 22.4643 22.9932 22.4059C23.3206 22.1716 23.6169 21.7511 24.0798 21.6382C24.1971 21.614 24.3181 21.614 24.4354 21.6382L24.3987 21.8555ZM24.283 21.1895C24.1973 21.1724 24.109 21.1724 24.0233 21.1895C23.6847 21.2628 23.3883 21.6467 23.0271 21.9204C22.9229 21.9961 22.805 22.0507 22.6799 22.0813C22.2735 22.1716 21.8756 21.9966 21.4466 21.8245C21.3566 21.7895 21.2579 21.7836 21.1644 21.8075C20.9645 21.8678 20.781 21.973 20.6282 22.1152C20.5401 22.1897 20.4589 22.2718 20.3854 22.3607L20.202 22.2083C20.4395 21.9164 20.7545 21.6973 21.1108 21.5761C21.255 21.5391 21.4072 21.5489 21.5454 21.6043C21.9744 21.7793 22.3413 21.9204 22.6348 21.8499C22.7286 21.8272 22.8169 21.786 22.8944 21.7285C23.2218 21.4943 23.5182 21.0709 23.9782 20.958C24.0955 20.9339 24.2165 20.9339 24.3338 20.958L24.283 21.1895Z" fill="white"/>
<path d="M17.3204 22.2536C17.3453 22.3964 17.4144 22.5277 17.518 22.629C17.6135 22.7146 17.726 22.779 17.8482 22.8181L17.5659 21.5537C17.4511 21.6247 17.3641 21.7329 17.3194 21.8602C17.2747 21.9876 17.2751 22.1265 17.3204 22.2536Z" fill="white"/>
<path d="M14.4639 23.6759C14.387 23.7343 14.2985 23.7757 14.2043 23.7973C13.9221 23.8678 13.5467 23.7295 13.1177 23.5517C12.9782 23.4978 12.8255 23.4879 12.6803 23.5235C12.3249 23.6465 12.0104 23.8652 11.7715 24.1557L11.9578 24.3081C12.0309 24.2198 12.1121 24.1385 12.2005 24.0654C12.3518 23.922 12.5344 23.8157 12.7339 23.7549C12.8276 23.7329 12.9257 23.7388 13.0161 23.7719C13.4423 23.944 13.843 24.119 14.2466 24.0287C14.3723 23.9999 14.4905 23.9451 14.5938 23.8678C14.9578 23.5856 15.2513 23.2102 15.5928 23.1368C15.6785 23.1198 15.7668 23.1198 15.8525 23.1368L15.8948 22.9026C15.7775 22.8785 15.6565 22.8785 15.5392 22.9026C15.0848 23.0183 14.8026 23.4417 14.4639 23.6759Z" fill="#00B7A5"/>
<path d="M14.5796 24.3392C14.5031 24.3982 14.4144 24.4396 14.32 24.4605C14.0378 24.5339 13.6596 24.3928 13.2334 24.215C13.094 24.1605 12.9408 24.1516 12.796 24.1896C12.4397 24.3108 12.1248 24.5299 11.8872 24.8218L12.0707 24.9713C12.1454 24.8845 12.2265 24.8034 12.3134 24.7286C12.4655 24.5855 12.6492 24.4801 12.8496 24.421C12.9429 24.3967 13.0414 24.4017 13.1318 24.4351C13.558 24.6073 13.9587 24.7823 14.3623 24.6948C14.488 24.6644 14.6061 24.6087 14.7095 24.5311C15.0707 24.2488 15.3671 23.8735 15.7057 23.8029C15.7913 23.7845 15.8798 23.7845 15.9654 23.8029L16.0077 23.5687C15.8904 23.5445 15.7694 23.5445 15.6521 23.5687C15.2034 23.6844 14.907 24.1049 14.5796 24.3392Z" fill="#00B7A5"/>
<path d="M22.8858 21.7344C22.8083 21.7918 22.72 21.8331 22.6262 21.8557C22.3439 21.9263 21.9657 21.7852 21.5368 21.6102C21.3986 21.5548 21.2463 21.5449 21.1021 21.582C20.7459 21.7032 20.4309 21.9223 20.1934 22.2141L20.3768 22.3665C20.4503 22.2777 20.5315 22.1955 20.6195 22.121C20.7724 21.9788 20.9558 21.8736 21.1558 21.8134C21.2493 21.7894 21.348 21.7954 21.438 21.8303C21.867 22.0025 22.2649 22.1774 22.6713 22.0871C22.7964 22.0566 22.9143 22.0019 23.0184 21.9263C23.3797 21.644 23.676 21.2687 24.0147 21.1953C24.1004 21.1783 24.1886 21.1783 24.2744 21.1953L24.3167 20.9639C24.1994 20.9398 24.0784 20.9398 23.9611 20.9639C23.5095 21.0768 23.2132 21.5001 22.8858 21.7344Z" fill="#00B7A5"/>
<path d="M22.9874 22.3976C22.9104 22.456 22.8219 22.4974 22.7277 22.5189C22.4455 22.5895 22.0701 22.4512 21.6411 22.2734C21.5026 22.2195 21.3508 22.2096 21.2065 22.2452C20.8512 22.3697 20.5361 22.5882 20.2949 22.8774L20.4812 23.0298C20.5572 22.9448 20.6403 22.8664 20.7296 22.7955C20.8815 22.6515 21.0652 22.5452 21.2658 22.4851C21.3595 22.4626 21.4577 22.4685 21.548 22.502C21.9742 22.6742 22.3749 22.8491 22.7785 22.7588C22.9046 22.7313 23.0231 22.6764 23.1257 22.598C23.4897 22.3157 23.7833 21.9404 24.1248 21.8698C24.2103 21.8513 24.2988 21.8513 24.3844 21.8698L24.4267 21.6356C24.3094 21.6114 24.1884 21.6114 24.0711 21.6356C23.6224 21.7428 23.326 22.1633 22.9874 22.3976Z" fill="#00B7A5"/>
<path d="M18.9543 23.1653C18.8471 23.095 18.7288 23.0434 18.6043 23.0129L18.2374 22.9282L17.9072 21.4268L18.6269 21.2602L18.5676 20.9978C18.4596 20.9909 18.3511 20.9909 18.2431 20.9978C18.1011 21.007 17.9598 21.024 17.8197 21.0486L17.7125 20.5801L17.3653 20.6591L17.4726 21.1332C17.2182 21.2019 17.0006 21.3669 16.8658 21.5933C16.7575 21.8378 16.7395 22.1128 16.815 22.3694C16.8487 22.5381 16.9138 22.6989 17.0069 22.8435C17.083 22.9541 17.1786 23.0497 17.2891 23.1258C17.3931 23.1982 17.5086 23.2526 17.6306 23.2866C17.752 23.3205 17.8734 23.3515 17.9919 23.3769L18.3447 24.9038L17.4472 25.1098L17.5093 25.3695C17.6379 25.3819 17.7673 25.3819 17.8959 25.3695C18.0661 25.3563 18.235 25.3299 18.4011 25.2904H18.4322L18.5366 25.7505L18.8837 25.6715L18.7737 25.186C19.0414 25.1118 19.2699 24.9368 19.4115 24.6978C19.514 24.4444 19.527 24.1636 19.4482 23.9019C19.4161 23.738 19.3508 23.5824 19.2563 23.4447C19.1747 23.3328 19.0721 23.2379 18.9543 23.1653ZM17.848 22.8181C17.7258 22.779 17.6133 22.7146 17.5177 22.629C17.4142 22.5277 17.3451 22.3964 17.3202 22.2537C17.2738 22.1278 17.2717 21.9898 17.3143 21.8626C17.3569 21.7353 17.4416 21.6264 17.5544 21.5538L17.848 22.8181ZM18.9204 24.4551C18.8736 24.586 18.7829 24.6968 18.6636 24.7683L18.3644 23.4786C18.4891 23.515 18.6059 23.5743 18.7087 23.6535C18.8176 23.7461 18.8906 23.8739 18.9148 24.0148C18.9547 24.1586 18.9566 24.3103 18.9204 24.4551Z" fill="#00B7A5"/>
<path d="M11.3481 25.0533L15.2542 32.9387L29.9299 25.6657L26.0239 17.7803L11.3481 25.0533ZM27.8245 24.057C27.6512 24.1432 27.5045 24.2748 27.4001 24.4379C27.2957 24.6009 27.2375 24.7892 27.2317 24.9827C27.2259 25.1762 27.2727 25.3677 27.3672 25.5367C27.4617 25.7057 27.6002 25.8458 27.7681 25.9423L17.1677 31.1917C17.1696 31.0271 17.1318 30.8645 17.0576 30.7175C16.9713 30.5416 16.8381 30.3929 16.6728 30.2876C16.5075 30.1824 16.3164 30.1247 16.1205 30.1209C15.9246 30.1171 15.7314 30.1673 15.5621 30.2661C15.3929 30.3649 15.2541 30.5084 15.161 30.6809L13.1854 26.7297C13.439 26.7815 13.7027 26.7397 13.9278 26.6119C14.1528 26.4842 14.3239 26.2792 14.4094 26.0349C14.4948 25.7906 14.4888 25.5237 14.3924 25.2835C14.2961 25.0433 14.1159 24.8462 13.8854 24.7287L24.4745 19.4849C24.4757 19.6667 24.5229 19.8453 24.6118 20.0038C24.7007 20.1624 24.8284 20.2959 24.9829 20.3917C25.1374 20.4876 25.3136 20.5427 25.4952 20.5519C25.6768 20.5611 25.8577 20.5242 26.0211 20.4445C26.0979 20.4049 26.1699 20.3566 26.2356 20.3006L28.0588 23.9695C27.9781 23.9887 27.8996 24.0162 27.8245 24.0514V24.057Z" fill="#00B7A5"/>
<path d="M20.9326 25.7363L21.5196 26.9217C21.6194 26.8247 21.6823 26.6959 21.6974 26.5576C21.7007 26.4088 21.6647 26.2619 21.593 26.1314C21.5362 26.0008 21.4367 25.8934 21.3108 25.8266C21.1922 25.7712 21.0635 25.7405 20.9326 25.7363Z" fill="white"/>
<path d="M26.0324 20.4276C25.869 20.5073 25.6881 20.5442 25.5065 20.535C25.325 20.5258 25.1487 20.4707 24.9942 20.3748C24.8397 20.279 24.7121 20.1455 24.6232 19.9869C24.5343 19.8284 24.487 19.6498 24.4858 19.468L13.8967 24.7118C14.1273 24.8293 14.3074 25.0264 14.4038 25.2666C14.5001 25.5068 14.5061 25.7737 14.4207 26.018C14.3353 26.2623 14.1641 26.4673 13.9391 26.595C13.714 26.7228 13.4503 26.7646 13.1968 26.7128L15.1724 30.664C15.2654 30.4915 15.4042 30.348 15.5735 30.2492C15.7427 30.1504 15.9359 30.1002 16.1318 30.104C16.3278 30.1078 16.5189 30.1655 16.6842 30.2707C16.8495 30.376 16.9826 30.5247 17.0689 30.7006C17.1432 30.8476 17.1809 31.0102 17.179 31.1748L27.7794 25.9254C27.6116 25.8289 27.473 25.6888 27.3785 25.5198C27.284 25.3508 27.2372 25.1593 27.243 24.9658C27.2488 24.7723 27.307 24.584 27.4114 24.421C27.5158 24.2579 27.6625 24.1263 27.8359 24.0401C27.9144 24.0022 27.9967 23.9729 28.0814 23.9526L26.2582 20.2837C26.189 20.3404 26.1131 20.3887 26.0324 20.4276ZM18.6946 26.5971C18.6073 26.6012 18.5217 26.6233 18.4434 26.662C18.1301 26.8116 17.9297 27.2518 17.6418 27.6018C17.56 27.701 17.458 27.7818 17.3427 27.8389C16.9701 28.0195 16.5383 27.9433 16.084 27.8756C15.9869 27.8616 15.8879 27.8794 15.8017 27.9264C15.621 28.0313 15.4665 28.1761 15.3502 28.3497C15.2845 28.4396 15.2251 28.5339 15.1724 28.6319L14.9579 28.5275C15.1215 28.1877 15.3778 27.901 15.6973 27.7006C15.8291 27.6319 15.9791 27.6062 16.1263 27.6272C16.5835 27.7006 16.973 27.7514 17.2411 27.6272C17.3268 27.5826 17.4034 27.5222 17.4669 27.4494C17.7293 27.1446 17.9213 26.6648 18.3446 26.4503C18.4517 26.3962 18.569 26.3654 18.6889 26.36L18.6946 26.5971ZM18.4293 25.9762C18.3418 25.9816 18.2564 26.0046 18.1781 26.0439C17.8648 26.1907 17.6672 26.6309 17.3766 26.9837C17.2939 27.0821 17.1921 27.1628 17.0774 27.2208C16.7049 27.4014 16.2731 27.3224 15.8187 27.2547C15.7216 27.2433 15.6234 27.261 15.5364 27.3055C15.3565 27.4105 15.203 27.5553 15.0877 27.7288C15.0209 27.8185 14.9606 27.9128 14.9071 28.011L14.6926 27.9066C14.8585 27.5691 15.1144 27.2839 15.432 27.0825C15.5634 27.0125 15.7138 26.9868 15.861 27.0091C16.3182 27.0825 16.7077 27.1333 16.9758 26.995C17.0627 26.9522 17.1396 26.8916 17.2016 26.8172C17.4669 26.5124 17.656 26.0354 18.0793 25.8181C18.1868 25.765 18.3039 25.7343 18.4236 25.7278L18.4293 25.9762ZM22.228 26.6789C22.1477 26.9457 21.9651 27.1699 21.72 27.3026L21.943 27.7486L21.6241 27.9066L21.4124 27.4833H21.387C21.2337 27.5591 21.0752 27.6242 20.9129 27.678C20.7905 27.7199 20.665 27.752 20.5375 27.774L20.419 27.5341L21.2402 27.1248L20.546 25.7137C20.4246 25.7137 20.3004 25.7137 20.1734 25.7137C20.0468 25.707 19.922 25.6803 19.8037 25.6347C19.6779 25.5843 19.5623 25.5116 19.4622 25.4202C19.3391 25.2999 19.2387 25.1584 19.1659 25.0025C19.0336 24.7709 18.9876 24.4999 19.036 24.2376C19.1139 23.9848 19.2883 23.7728 19.5215 23.6478L19.307 23.2132L19.6259 23.0551L19.8376 23.4869C19.9685 23.4303 20.1023 23.3804 20.2383 23.3374C20.342 23.3053 20.4476 23.2799 20.5544 23.2611L20.673 23.5039L20.0097 23.8312L20.6927 25.2113H21.0709C21.1978 25.2119 21.3238 25.2338 21.4434 25.2762C21.5698 25.322 21.6866 25.391 21.7878 25.4795C21.9077 25.5917 22.0038 25.727 22.07 25.8774C22.2126 26.1187 22.2646 26.4028 22.2167 26.6789H22.228ZM26.4389 22.7616C26.3507 22.7661 26.2643 22.7881 26.1849 22.8265C25.8744 22.9733 25.674 23.4164 25.3862 23.7663C25.3027 23.8651 25.1999 23.9457 25.0842 24.0034C24.7116 24.184 24.2826 24.105 23.8283 24.0373C23.7309 24.0253 23.6322 24.0441 23.546 24.0909C23.3641 24.1942 23.2093 24.3393 23.0945 24.5142C23.0261 24.6028 22.9656 24.6973 22.9138 24.7965L22.7022 24.692C22.8639 24.3518 23.1194 24.0649 23.4388 23.8651C23.5716 23.7964 23.7225 23.7707 23.8706 23.7917C24.3278 23.8651 24.7173 23.9159 24.9854 23.7917C25.0714 23.7476 25.1473 23.6861 25.2083 23.6111C25.4736 23.3091 25.6656 22.8293 26.0861 22.6148C26.1931 22.5607 26.3105 22.5299 26.4304 22.5245L26.4389 22.7616ZM26.1736 22.1407C26.0863 22.1448 26.0008 22.1669 25.9224 22.2056C25.6091 22.3552 25.4087 22.7955 25.1209 23.1454C25.0374 23.2442 24.9346 23.3248 24.8189 23.3825C24.4463 23.5659 24.0173 23.4869 23.563 23.4192C23.4659 23.405 23.3668 23.4229 23.2807 23.47C23.0994 23.5742 22.9449 23.7191 22.8292 23.8933C22.7624 23.9831 22.7021 24.0774 22.6485 24.1756L22.4369 24.0711C22.6002 23.7327 22.8555 23.4471 23.1735 23.247C23.3059 23.177 23.4572 23.1513 23.6053 23.1737C24.0625 23.2442 24.452 23.2978 24.7342 23.1595C24.8211 23.1167 24.898 23.0562 24.96 22.9817C25.2225 22.6769 25.4144 22.2 25.8349 21.9827C25.9434 21.9296 26.0614 21.8989 26.182 21.8923L26.1736 22.1407Z" fill="white"/>
<path d="M19.6343 24.7711C19.6906 24.9064 19.7898 25.0194 19.9165 25.0929C20.0292 25.1538 20.1531 25.1912 20.2806 25.203L19.7162 24.0374C19.6201 24.1315 19.5595 24.256 19.5446 24.3897C19.5297 24.5234 19.5614 24.6581 19.6343 24.7711Z" fill="white"/>
<path d="M17.1848 26.8286C17.1228 26.903 17.0459 26.9636 16.959 27.0064C16.6909 27.1447 16.3014 27.0939 15.8442 27.0205C15.697 26.9982 15.5466 27.0239 15.4152 27.0939C15.0976 27.2953 14.8417 27.5805 14.6758 27.918L14.8903 28.0224C14.9438 27.9242 15.0042 27.8299 15.0709 27.7402C15.1862 27.5667 15.3397 27.4219 15.5196 27.3168C15.6066 27.2724 15.7048 27.2547 15.8019 27.266C16.2563 27.3338 16.6881 27.4128 17.0606 27.2322C17.1753 27.1742 17.2771 27.0935 17.3598 26.9951C17.642 26.6423 17.848 26.202 18.1613 26.0553C18.2396 26.016 18.325 25.993 18.4125 25.9876V25.7505C18.2928 25.757 18.1756 25.7877 18.0682 25.8408C17.6392 26.0468 17.4501 26.5238 17.1848 26.8286Z" fill="#00B7A5"/>
<path d="M17.4499 27.4494C17.3864 27.5223 17.3098 27.5826 17.2241 27.6272C16.956 27.7627 16.5665 27.7119 16.1093 27.6272C15.9622 27.6063 15.8122 27.6319 15.6804 27.7006C15.3609 27.9011 15.1045 28.1877 14.9409 28.5275L15.1554 28.632C15.2081 28.5339 15.2676 28.4396 15.3332 28.3497C15.4496 28.1761 15.604 28.0313 15.7848 27.9264C15.8709 27.8794 15.9699 27.8616 16.067 27.8756C16.5214 27.9433 16.9532 28.0195 17.3257 27.8389C17.4419 27.7794 17.5439 27.6957 17.6249 27.5934C17.9071 27.2434 18.1131 26.8031 18.4264 26.6535C18.5048 26.6149 18.5903 26.5928 18.6776 26.5886V26.3516C18.5577 26.3569 18.4404 26.3877 18.3333 26.4419C17.9071 26.6648 17.7124 27.1446 17.4499 27.4494Z" fill="#00B7A5"/>
<path d="M24.9289 22.9929C24.8669 23.0673 24.79 23.1279 24.7031 23.1707C24.4209 23.309 24.0455 23.2554 23.5742 23.1848C23.4261 23.1624 23.2747 23.1882 23.1424 23.2582C22.8243 23.4583 22.5691 23.7439 22.4058 24.0823L22.6174 24.1867C22.6709 24.0885 22.7313 23.9942 22.7981 23.9045C22.9137 23.7303 23.0683 23.5854 23.2496 23.4812C23.3357 23.434 23.4347 23.4162 23.5318 23.4304C23.9862 23.4981 24.4152 23.5771 24.7878 23.3937C24.9035 23.336 25.0062 23.2553 25.0897 23.1566C25.372 22.8066 25.578 22.3664 25.8913 22.2168C25.9696 22.1781 26.0551 22.156 26.1424 22.1519V21.9148C26.0218 21.9213 25.9038 21.952 25.7953 22.0051C25.3833 22.2111 25.1913 22.6881 24.9289 22.9929Z" fill="#00B7A5"/>
<path d="M25.1917 23.611C25.1307 23.6859 25.0548 23.7474 24.9688 23.7916C24.7007 23.9271 24.3112 23.8763 23.854 23.7916C23.7059 23.7706 23.555 23.7963 23.4222 23.865C23.1028 24.0648 22.8472 24.3517 22.6855 24.6919L22.8972 24.7963C22.949 24.6971 23.0095 24.6027 23.0778 24.5141C23.1927 24.3392 23.3475 24.1941 23.5294 24.0908C23.6156 24.044 23.7143 24.0252 23.8116 24.0371C24.266 24.1049 24.695 24.1839 25.0675 24.0033C25.1833 23.9456 25.286 23.8649 25.3695 23.7662C25.6518 23.4162 25.8578 22.9731 26.1682 22.8264C26.2477 22.788 26.3341 22.7659 26.4222 22.7615L26.4081 22.5244C26.2882 22.5298 26.1709 22.5606 26.0638 22.6147C25.6489 22.8292 25.457 23.309 25.1917 23.611Z" fill="#00B7A5"/>
<path d="M21.4325 25.2931C21.3129 25.2507 21.1869 25.2288 21.06 25.2282H20.6818L19.9988 23.8481L20.662 23.5208L20.5435 23.278C20.4366 23.2968 20.3311 23.3222 20.2274 23.3542C20.0914 23.3972 19.9576 23.4472 19.8266 23.5038L19.615 23.072L19.2961 23.2301L19.5105 23.6647C19.2774 23.7897 19.103 24.0017 19.0251 24.2546C18.9767 24.5168 19.0227 24.7878 19.1549 25.0194C19.2278 25.1753 19.3282 25.3168 19.4513 25.4371C19.5513 25.5285 19.667 25.6011 19.7928 25.6516C19.9111 25.6972 20.0359 25.7239 20.1625 25.7306C20.2895 25.7306 20.4137 25.7306 20.535 25.7306L21.2293 27.1417L20.408 27.551L20.5266 27.7909C20.654 27.7689 20.7795 27.7368 20.9019 27.6949C21.0643 27.6411 21.2228 27.576 21.3761 27.5002H21.4015L21.6131 27.9235L21.9321 27.7654L21.7091 27.3195C21.9541 27.1868 22.1367 26.9626 22.2171 26.6958C22.2608 26.4252 22.2089 26.1478 22.0703 25.9112C22.0041 25.7609 21.9081 25.6255 21.7881 25.5133C21.685 25.4175 21.5642 25.3427 21.4325 25.2931ZM20.2782 25.2141C20.1507 25.2024 20.0268 25.1649 19.9141 25.104C19.7874 25.0306 19.6882 24.9176 19.6319 24.7823C19.5568 24.6711 19.5223 24.5375 19.5341 24.4039C19.546 24.2703 19.6034 24.1448 19.6968 24.0485L20.2782 25.2141ZM21.6893 26.5575C21.6742 26.6959 21.6113 26.8246 21.5115 26.9216L20.9245 25.7362C21.0544 25.7408 21.1821 25.7715 21.2999 25.8265C21.4257 25.8933 21.5252 26.0007 21.5821 26.1314C21.6577 26.2607 21.6976 26.4077 21.6978 26.5575H21.6893Z" fill="#00B7A5"/>
<path d="M39.9011 19.739C39.9011 18.7963 39.7966 17.8706 39.7204 16.9449H36.6639C30.4973 13.2308 27.136 12.9514 27.136 12.9514C23.6242 13.1537 20.2278 14.2781 17.2891 16.2111L19.7416 16.1744L26.7154 16.245V18.6976C26.7154 18.6976 23.9807 18.4887 22.4397 18.5593C20.8987 18.6298 20.8987 20.3091 21.9486 21.0118C22.9985 21.7146 26.5743 21.6412 26.5743 21.6412C27.7371 23.3345 31.2875 22.6177 31.8294 22.4879V22.4709H39.7995C39.839 21.5678 39.9208 20.6506 39.9011 19.739Z" fill="#FFBF95"/>
<path d="M39.8873 20.5883C39.8873 20.3061 39.9043 20.0239 39.8873 19.7417C39.8873 18.799 39.7829 17.8733 39.7067 16.9476H36.6643C30.4976 13.2335 27.1363 12.9541 27.1363 12.9541C23.9207 13.1568 20.7975 14.1109 18.0176 15.7397C19.2029 15.8695 20.3855 16.021 21.5652 16.1941L26.7158 16.2449V17.0746C31.1791 17.9536 35.5793 19.1274 39.8873 20.5883Z" fill="#F4B490"/>
<path d="M39.901 19.739C39.901 18.7709 39.7909 17.8255 39.7147 16.8772H37.646V22.6233H39.7937C39.8304 21.6666 39.9207 20.6986 39.901 19.739Z" fill="white"/>
<path d="M39.9011 19.739C39.9011 18.6778 39.7713 17.6392 39.6923 16.595H38.1372V22.6233H39.7939C39.8306 21.6666 39.9209 20.6986 39.9011 19.739Z" fill="#2C3F49"/>
<path d="M39.8505 21.4437C39.7839 21.3786 39.7022 21.331 39.6128 21.3052C39.5233 21.2793 39.4289 21.276 39.3378 21.2955C39.2468 21.315 39.162 21.3567 39.091 21.4169C39.0199 21.4772 38.9649 21.554 38.9308 21.6407C38.8967 21.7273 38.8846 21.8211 38.8955 21.9136C38.9064 22.006 38.94 22.0944 38.9933 22.1707C39.0467 22.247 39.1181 22.309 39.2011 22.351C39.2842 22.3931 39.3764 22.4139 39.4695 22.4117C39.592 22.4109 39.7108 22.3703 39.8082 22.296C39.8195 22.0109 39.8364 21.7259 39.8505 21.4437Z" fill="white"/>
<path d="M23.2697 19.0476L23.1286 20.741C23.1286 20.741 21.5171 20.741 21.7174 19.6911C21.9178 18.6412 23.2697 19.0476 23.2697 19.0476Z" fill="#FFE2CF"/>
</g>
<defs>
<clipPath id="clip0_3255_11633">
<rect width="39.904" height="40" fill="white"/>
</clipPath>
</defs>
</svg>
