<svg width="40" height="40" viewBox="0 0 40 40" fill="none" xmlns="http://www.w3.org/2000/svg">
<g clip-path="url(#clip0_3255_11733)">
<path d="M34.144 34.1441C41.955 26.3331 41.955 13.6689 34.144 5.85784C26.333 -1.9532 13.6688 -1.9532 5.85773 5.85784C-1.9533 13.6689 -1.9533 26.3331 5.85773 34.1441C13.6688 41.9551 26.333 41.9551 34.144 34.1441Z" fill="#56D5D9"/>
<path d="M26.8568 16.9167L26.4194 17.7832L15.4746 39.3989L15.7738 39.5485C18.5871 40.1567 21.4985 40.1504 24.3091 39.5301C27.1197 38.9098 29.7633 37.6901 32.0593 35.9544C34.3553 34.2186 36.2496 32.0077 37.6128 29.4727C38.9759 26.9377 39.7758 24.1384 39.9578 21.2659L34.666 19.3608L26.8568 16.9167Z" fill="#45C4C4"/>
<path d="M27.7234 18.6946C27.5637 18.7723 27.3872 18.8092 27.2097 18.8018C26.363 18.8216 26.4195 18.3475 26.4195 17.7858C26.4195 17.2242 26.7723 16.7698 27.2097 16.7698C27.27 16.7705 27.3299 16.78 27.3875 16.798C27.1392 16.6259 25.6349 15.7538 25.3131 19.4651L25.2257 24.1275H19.6855L22.0619 35.3065L24.791 31.7871C24.791 31.7871 27.0799 27.5537 27.9576 26.1426C28.5588 25.1858 28.0818 21.1274 27.7234 18.6946Z" fill="#FFC8A6"/>
<path d="M26.4195 17.7831C26.4195 18.3476 26.3715 18.8189 27.2097 18.7991C27.3871 18.8065 27.5636 18.7696 27.7233 18.6919C27.5625 17.5912 27.4242 16.8207 27.4242 16.8207C27.4131 16.8107 27.4007 16.8022 27.3875 16.7953C27.3299 16.7773 27.27 16.7678 27.2097 16.7671C26.7722 16.7671 26.4195 17.2215 26.4195 17.7831Z" fill="#FFDFD5"/>
<path d="M24.7822 31.344H16.0698V36.537H24.7822V31.344Z" fill="#FFC8A6"/>
<path d="M25.3128 30.0147C25.3128 30.9912 24.6044 31.7843 23.7267 31.7843H16.3351C15.4602 31.7843 14.749 30.9912 14.749 30.0147V13.3972C14.749 12.4207 15.4518 11.6389 16.3351 11.6389H23.7267C24.6044 11.6389 25.3128 12.432 25.3128 13.4085V30.0147Z" fill="white"/>
<path d="M24.6076 28.8775V13.3889H15.4521V28.8775H24.6076Z" fill="#2C3F49"/>
<path d="M19.8546 13.9165H15.9824V18.3757H19.8546V13.9165Z" fill="#FFC6A0"/>
<path d="M24.0798 13.9165H20.4419V18.3757H24.0798V13.9165Z" fill="#00B4A5"/>
<path d="M19.8546 18.9036H15.9824V23.1285H19.8546V18.9036Z" fill="#FF7A5A"/>
<path d="M24.0798 18.9036H20.4419V23.1285H24.0798V18.9036Z" fill="#00B1D1"/>
<path d="M19.8546 23.7749H15.9824V28.3526H19.8546V23.7749Z" fill="#FF5628"/>
<path d="M24.0798 23.7749H20.4419V28.3526H24.0798V23.7749Z" fill="#FFAB2E"/>
<path d="M16.5132 29.1568C16.615 29.2585 16.6958 29.3793 16.7509 29.5122C16.806 29.6451 16.8344 29.7876 16.8344 29.9315C16.8344 30.0754 16.806 30.2179 16.7509 30.3508C16.6958 30.4838 16.615 30.6045 16.5132 30.7062C16.3263 30.9278 16.0591 31.0662 15.7702 31.0911C15.4813 31.116 15.1944 31.0253 14.9723 30.8389L12.0145 28.121C11.8098 27.9157 11.6948 27.6376 11.6948 27.3477C11.6948 27.0578 11.8098 26.7797 12.0145 26.5744C12.2016 26.3522 12.4691 26.2132 12.7585 26.1878C13.0478 26.1624 13.3354 26.2527 13.5583 26.439L16.5132 29.1568Z" fill="#FFC8A6"/>
<path d="M16.5215 24.932C16.8912 25.2735 16.846 25.9283 16.4171 26.3939C15.9881 26.8568 15.3418 26.9584 14.9692 26.6141L12.3812 24.2292C12.0087 23.8849 12.0567 23.233 12.4828 22.7673C12.9118 22.3016 13.5609 22.2029 13.9335 22.5472L16.5215 24.932Z" fill="#FFC8A6"/>
<path d="M16.7443 20.8396C17.0887 21.1557 17.0266 21.7907 16.5919 22.2507C16.1658 22.7164 15.5364 22.8349 15.1808 22.516L12.779 20.3005C12.4347 19.9844 12.4968 19.3494 12.9314 18.8894C13.3576 18.4237 13.9842 18.3052 14.3426 18.6241L16.7443 20.8396Z" fill="#FFC8A6"/>
<path d="M14.7493 15.3249C14.7493 15.3249 12.8132 13.3888 11.8452 14.2694C10.8771 15.1499 12.6298 17.261 14.7493 18.3165V15.3249Z" fill="#FFC8A6"/>
<path d="M16.0166 29.3912C16.4145 29.7891 16.533 30.314 16.279 30.5652C16.025 30.8164 15.5029 30.7007 15.105 30.3027C14.707 29.9048 14.3712 29.6254 14.8425 29.1287C15.3138 28.632 15.6299 28.9932 16.0166 29.3912Z" fill="#FFDFD5"/>
<path d="M15.7822 24.9037C16.1801 25.3016 16.2987 25.8266 16.0475 26.0778C15.7963 26.3289 15.2685 26.2132 14.8706 25.8153C14.4727 25.4173 14.1368 25.1351 14.6081 24.6412C15.0795 24.1473 15.3871 24.5001 15.7822 24.9037Z" fill="#FFDFD5"/>
<path d="M16.1347 20.848C16.5327 21.2459 16.6484 21.7709 16.3972 22.0249C16.146 22.2789 15.6211 22.1575 15.2231 21.7596C14.8252 21.3617 14.4894 21.0823 14.9607 20.5855C15.432 20.0888 15.734 20.4529 16.1347 20.848Z" fill="#FFDFD5"/>
<path d="M25.1352 34.7478H15.3955V35.5098H25.1352V34.7478Z" fill="white"/>
<path d="M26.309 35.3914H14.749V38.2672H26.309V35.3914Z" fill="#2C3F49"/>
<path d="M15.5732 37.9143V39.5032C18.6881 40.2095 21.9265 40.162 25.0194 39.365V37.9143H15.5732Z" fill="#2C3F49"/>
<path d="M25.8407 36.7403C25.8413 36.8918 25.7968 37.0401 25.713 37.1663C25.6292 37.2925 25.5097 37.3909 25.3699 37.4492C25.23 37.5074 25.076 37.5228 24.9273 37.4934C24.7787 37.464 24.6422 37.3911 24.5351 37.2839C24.4279 37.1768 24.355 37.0403 24.3256 36.8916C24.2962 36.743 24.3116 36.589 24.3698 36.4491C24.428 36.3092 24.5265 36.1898 24.6527 36.106C24.7789 36.0222 24.9272 35.9777 25.0787 35.9783C25.2808 35.9783 25.4746 36.0586 25.6175 36.2015C25.7604 36.3444 25.8407 36.5382 25.8407 36.7403Z" fill="#FBF0E3"/>
</g>
<defs>
<clipPath id="clip0_3255_11733">
<rect width="40" height="40" fill="white"/>
</clipPath>
</defs>
</svg>
