<svg width="40" height="40" viewBox="0 0 40 40" fill="none" xmlns="http://www.w3.org/2000/svg">
<g clip-path="url(#clip0_3255_11716)">
<path d="M39.7525 23.2068C41.5224 12.303 34.118 2.02896 23.2143 0.259026C12.3105 -1.5109 2.03644 5.89353 0.266508 16.7973C-1.50342 27.701 5.90101 37.9751 16.8048 39.745C27.7085 41.515 37.9826 34.1105 39.7525 23.2068Z" fill="#56D5D9"/>
<path d="M29.6536 37.5164C32.685 35.8456 35.2307 33.4163 37.0414 30.4662C38.852 27.5162 39.8657 24.1466 39.9831 20.6872L30.1785 16.9138L0.237061 23.0748C0.251172 23.1623 0.268115 23.247 0.282226 23.3345L29.6536 37.5164Z" fill="#45C4C4"/>
<path d="M29.6338 16.7925H14.8169C13.4141 16.7925 12.2769 17.9297 12.2769 19.3325V26.4587C12.2769 27.8616 13.4141 28.9988 14.8169 28.9988H29.6338C31.0366 28.9988 32.1738 27.8616 32.1738 26.4587V19.3325C32.1738 17.9297 31.0366 16.7925 29.6338 16.7925Z" fill="white"/>
<path d="M14.0549 16.9054L20.5461 16.8405L22.9987 16.7925C20.0436 14.9081 16.6538 13.8148 13.1546 13.6174C13.1546 13.6174 9.79045 13.8997 3.6238 17.6109H0.146776C-0.0785071 19.4514 -0.0443103 21.3144 0.248374 23.1454H8.44706V23.1708C8.98893 23.2893 12.5393 23.9949 13.7021 22.3241C13.7021 22.3241 17.2751 22.3919 18.3278 21.6919C19.3805 20.992 19.3777 19.3099 17.8367 19.2394C16.2958 19.1688 13.561 19.3805 13.561 19.3805V17.1227C13.5892 17.1086 13.8912 16.9618 14.0549 16.9054Z" fill="#F4B490"/>
<path d="M13.5695 16.911L18.7201 16.8574C19.8998 16.6881 21.0814 16.5366 22.2649 16.403C19.4877 14.7725 16.3659 13.8183 13.1518 13.6174C13.1518 13.6174 9.78763 13.8997 3.62097 17.6109H0.146763C0.0508036 18.4032 0.00179317 19.2005 0 19.9986C0 20.4614 0.0225788 20.9158 0.0536238 21.3702C4.47135 19.8544 8.98706 18.6409 13.5695 17.7379V16.911Z" fill="#F4B490"/>
<path d="M2.63883 17.5403H0.186279V23.2864H2.63883V17.5403Z" fill="white"/>
<path d="M2.14774 17.261H0.191912C0.0664516 18.1682 0.00233665 19.0828 0 19.9986C0.00351471 21.1005 0.0979103 22.2002 0.282227 23.2865H2.15622L2.14774 17.261Z" fill="#2C3F49"/>
<path d="M0.262451 22.5161C0.262451 22.6278 0.295549 22.7369 0.357572 22.8297C0.419595 22.9225 0.507753 22.9949 0.610894 23.0376C0.714034 23.0803 0.827536 23.0915 0.937029 23.0697C1.04652 23.0479 1.14709 22.9942 1.22603 22.9152C1.30497 22.8363 1.35873 22.7357 1.38051 22.6262C1.40229 22.5167 1.39112 22.4032 1.3484 22.3001C1.30568 22.197 1.23332 22.1088 1.1405 22.0468C1.04768 21.9848 0.938543 21.9517 0.826905 21.9517C0.677202 21.9517 0.53364 22.0111 0.427784 22.117C0.321928 22.2228 0.262451 22.3664 0.262451 22.5161Z" fill="white"/>
<path d="M17.0044 19.7135L17.1455 21.4068C17.1455 21.4068 18.757 21.4068 18.5566 20.3541C18.3563 19.3014 17.0044 19.7135 17.0044 19.7135Z" fill="#FFE2CF"/>
<path d="M23.4475 18.438H19.5669V20.7664H23.4475V18.438Z" fill="#FF9C2A"/>
<path d="M18.6131 26.9526H16.7222V27.4465H18.6131V26.9526Z" fill="#FF9C2A"/>
<path d="M21.5564 26.9526H19.6655V27.4465H21.5564V26.9526Z" fill="#FF9C2A"/>
<path d="M24.7146 26.9526H22.8237V27.4465H24.7146V26.9526Z" fill="#FF9C2A"/>
<path d="M27.658 26.9526H25.7671V27.4465H27.658V26.9526Z" fill="#FF9C2A"/>
<path d="M31.3274 19.4738C31.2021 18.9635 30.9094 18.5101 30.496 18.1859C30.0825 17.8617 29.5724 17.6855 29.047 17.6855C28.5216 17.6855 28.0115 17.8617 27.5981 18.1859C27.1846 18.5101 26.8919 18.9635 26.7666 19.4738H31.3274Z" fill="#2C3F49"/>
<path d="M26.9355 21.071C27.1271 21.4699 27.4274 21.8065 27.8019 22.0421C28.1764 22.2777 28.6098 22.4027 29.0522 22.4027C29.4947 22.4027 29.9281 22.2777 30.3026 22.0421C30.6771 21.8065 30.9774 21.4699 31.1689 21.071H26.9355Z" fill="#2C3F49"/>
</g>
<defs>
<clipPath id="clip0_3255_11716">
<rect width="40" height="40" fill="white"/>
</clipPath>
</defs>
</svg>
