<svg width="35" height="37" viewBox="0 0 35 37" fill="none" xmlns="http://www.w3.org/2000/svg">
<path opacity="0.5" d="M17.5013 3.0835C14.617 3.0835 11.7975 3.98767 9.39924 5.68167C7.00103 7.37568 5.13184 9.78343 4.02807 12.6005C2.92429 15.4175 2.63549 18.5173 3.19819 21.5078C3.76089 24.4983 5.14982 27.2453 7.18933 29.4014C9.22885 31.5575 11.8274 33.0257 14.6562 33.6206C17.4851 34.2155 20.4174 33.9102 23.0821 32.7433C25.7469 31.5765 28.0245 29.6005 29.6269 27.0652C31.2293 24.5299 32.0846 21.5493 32.0846 18.5002C32.0846 16.4756 31.7074 14.4709 30.9746 12.6005C30.2417 10.73 29.1675 9.0305 27.8133 7.59893C26.4591 6.16736 24.8514 5.03178 23.0821 4.25702C21.3128 3.48226 19.4164 3.0835 17.5013 3.0835ZM17.5013 30.8335C15.1939 30.8335 12.9382 30.1102 11.0197 28.755C9.10108 27.3997 7.60574 25.4735 6.72271 23.2199C5.83969 20.9663 5.60865 18.4865 6.05881 16.094C6.50897 13.7016 7.62012 11.504 9.25173 9.77918C10.8833 8.05433 12.9621 6.8797 15.2253 6.40381C17.4884 5.92793 19.8341 6.17217 21.9659 7.10565C24.0978 8.03913 25.9198 9.61992 27.2018 11.6481C28.4837 13.6763 29.168 16.0609 29.168 18.5002C29.168 21.7712 27.9388 24.9082 25.7509 27.2211C23.563 29.5341 20.5955 30.8335 17.5013 30.8335ZM23.3346 16.9585H18.9596V12.3335C18.9596 11.9246 18.806 11.5325 18.5325 11.2434C18.259 10.9543 17.8881 10.7918 17.5013 10.7918C17.1145 10.7918 16.7436 10.9543 16.4701 11.2434C16.1966 11.5325 16.043 11.9246 16.043 12.3335V16.9585H11.668C11.2812 16.9585 10.9103 17.1209 10.6368 17.41C10.3633 17.6992 10.2096 18.0913 10.2096 18.5002C10.2096 18.909 10.3633 19.3012 10.6368 19.5903C10.9103 19.8794 11.2812 20.0418 11.668 20.0418H16.043V24.6668C16.043 25.0757 16.1966 25.4678 16.4701 25.757C16.7436 26.0461 17.1145 26.2085 17.5013 26.2085C17.8881 26.2085 18.259 26.0461 18.5325 25.757C18.806 25.4678 18.9596 25.0757 18.9596 24.6668V20.0418H23.3346C23.7214 20.0418 24.0924 19.8794 24.3658 19.5903C24.6393 19.3012 24.793 18.909 24.793 18.5002C24.793 18.0913 24.6393 17.6992 24.3658 17.41C24.0924 17.1209 23.7214 16.9585 23.3346 16.9585Z" fill="#292B2E"/>
</svg>
