<svg width="40" height="37" viewBox="0 0 40 37" fill="none" xmlns="http://www.w3.org/2000/svg">
<path d="M27.0846 34.1314C28.6955 34.1314 30.0013 32.9428 30.0013 31.4767C30.0013 30.0106 28.6955 28.822 27.0846 28.822C25.4738 28.822 24.168 30.0106 24.168 31.4767C24.168 32.9428 25.4738 34.1314 27.0846 34.1314Z" fill="#E91C24"/>
<path d="M13.7487 34.1314C15.3595 34.1314 16.6654 32.9428 16.6654 31.4767C16.6654 30.0106 15.3595 28.822 13.7487 28.822C12.1379 28.822 10.832 30.0106 10.832 31.4767C10.832 32.9428 12.1379 34.1314 13.7487 34.1314Z" fill="#E91C24"/>
<path d="M8.06537 5.97684L7.73203 9.69337C7.66536 10.4063 8.28203 10.9979 9.06536 10.9979H34.582C35.282 10.9979 35.8654 10.5125 35.9154 9.87541C36.132 7.1904 33.882 5.00599 30.932 5.00599H10.4487C10.282 4.33853 9.9487 3.70141 9.43203 3.17048C8.5987 2.3665 7.43203 1.89624 6.23203 1.89624H3.33203C2.6487 1.89624 2.08203 2.412 2.08203 3.03395C2.08203 3.6559 2.6487 4.17167 3.33203 4.17167H6.23203C6.7487 4.17167 7.23203 4.36887 7.58203 4.7026C7.93203 5.0515 8.0987 5.50658 8.06537 5.97684Z" fill="#E91C24"/>
<path d="M34.1847 13.2734H8.61806C7.91806 13.2734 7.35139 13.7589 7.28472 14.3808L6.68472 20.9795C6.45139 23.5735 8.68472 25.7883 11.5347 25.7883H30.0681C32.5681 25.7883 34.7681 23.9224 34.9514 21.647L35.5014 14.5628C35.5681 13.865 34.9681 13.2734 34.1847 13.2734Z" fill="#E91C24"/>
</svg>
