<svg width="80" height="80" viewBox="0 0 80 80" fill="none" xmlns="http://www.w3.org/2000/svg">
<rect x="0.5" y="0.5" width="79" height="79" rx="39.5" fill="white"/>
<path d="M38.3331 23.3167C30.0497 23.3167 23.3164 30.05 23.3164 38.3333C23.3164 46.6167 30.0497 53.35 38.3331 53.35C46.6164 53.35 53.3497 46.6167 53.3497 38.3333C53.3497 30.05 46.6164 23.3167 38.3331 23.3167ZM38.3331 42.0833H33.3331C32.6497 42.0833 32.0831 41.5167 32.0831 40.8333C32.0831 40.15 32.6497 39.5833 33.3331 39.5833H38.3331C39.0164 39.5833 39.5831 40.15 39.5831 40.8333C39.5831 41.5167 39.0164 42.0833 38.3331 42.0833ZM43.3331 37.0833H33.3331C32.6497 37.0833 32.0831 36.5167 32.0831 35.8333C32.0831 35.15 32.6497 34.5833 33.3331 34.5833H43.3331C44.0164 34.5833 44.5831 35.15 44.5831 35.8333C44.5831 36.5167 44.0164 37.0833 43.3331 37.0833Z" fill="#E91C24"/>
<path d="M56.6494 51.5833C56.0994 50.5667 54.9328 50 53.3661 50C52.1828 50 51.1661 50.4833 50.5661 51.3167C49.9661 52.15 49.8328 53.2667 50.1994 54.3833C50.9161 56.55 52.1661 57.0333 52.8494 57.1167C52.9494 57.1333 53.0494 57.1333 53.1661 57.1333C53.8994 57.1333 55.0328 56.8167 56.1328 55.1667C57.0161 53.8833 57.1828 52.6 56.6494 51.5833Z" fill="#E91C24"/>
<rect x="0.5" y="0.5" width="79" height="79" rx="39.5" stroke="#E91C24"/>
</svg>
