<svg width="76" height="76" viewBox="0 0 76 76" fill="none" xmlns="http://www.w3.org/2000/svg">
<path d="M27.4537 44.1208H12.6654C9.18203 44.1208 6.33203 46.9572 6.33203 50.4238V69.3328H27.4537V44.1208Z" stroke="#E91C24" stroke-width="3.5" stroke-miterlimit="10" stroke-linecap="round" stroke-linejoin="round"/>
<path d="M42.2102 31.5151H33.7552C30.2719 31.5151 27.4219 34.3515 27.4219 37.8181V69.333H48.5435V37.8181C48.5435 34.3515 45.7252 31.5151 42.2102 31.5151Z" stroke="#E91C24" stroke-width="3.5" stroke-miterlimit="10" stroke-linecap="round" stroke-linejoin="round"/>
<path d="M63.3332 53.5752H48.5449V69.3326H69.6666V59.8782C69.6666 56.4115 66.8166 53.5752 63.3332 53.5752Z" stroke="#E91C24" stroke-width="3.5" stroke-miterlimit="10" stroke-linecap="round" stroke-linejoin="round"/>
<path d="M39.6484 6.52405L41.3267 9.86462C41.5484 10.3373 42.15 10.7785 42.6567 10.8416L45.6967 11.3458C47.6284 11.661 48.1034 13.0791 46.71 14.4342L44.335 16.7978C43.9234 17.2075 43.7017 17.9639 43.8284 18.4997L44.4934 21.3991C45.0317 23.6997 43.7967 24.5821 41.77 23.3845L38.92 21.7143C38.4134 21.3991 37.5584 21.3991 37.0517 21.7143L34.2017 23.3845C32.175 24.5821 30.94 23.6997 31.4784 21.3991L32.1434 18.4997C32.27 17.9639 32.0484 17.176 31.6367 16.7978L29.2934 14.4658C27.9 13.0791 28.3434 11.6924 30.3067 11.3773L33.3467 10.8731C33.8534 10.7786 34.455 10.3374 34.6767 9.89616L36.355 6.55549C37.2734 4.72763 38.73 4.7277 39.6484 6.52405Z" stroke="#E91C24" stroke-width="3.5" stroke-linecap="round" stroke-linejoin="round"/>
</svg>
