<svg width="20" height="20" viewBox="0 0 20 20" fill="none" xmlns="http://www.w3.org/2000/svg">
<path d="M13.492 1.66675H6.50866C3.47533 1.66675 1.66699 3.47508 1.66699 6.50841V13.4834C1.66699 16.5251 3.47533 18.3334 6.50866 18.3334H13.4837C16.517 18.3334 18.3253 16.5251 18.3253 13.4917V6.50841C18.3337 3.47508 16.5253 1.66675 13.492 1.66675ZM11.6003 13.8584H7.50033C7.15866 13.8584 6.87533 13.5751 6.87533 13.2334C6.87533 12.8917 7.15866 12.6084 7.50033 12.6084H11.6003C12.667 12.6084 13.542 11.7417 13.542 10.6667C13.542 9.59175 12.6753 8.72508 11.6003 8.72508H7.37533L7.59199 8.94175C7.83366 9.18341 7.83366 9.58341 7.59199 9.82508C7.46699 9.95008 7.30866 10.0084 7.15033 10.0084C6.99199 10.0084 6.83366 9.95008 6.70866 9.82508L5.40033 8.51675C5.15866 8.27508 5.15866 7.87508 5.40033 7.63341L6.70866 6.32508C6.95033 6.08341 7.35033 6.08341 7.59199 6.32508C7.83366 6.56675 7.83366 6.96675 7.59199 7.20841L7.30866 7.48341H11.6003C13.3587 7.48341 14.792 8.91675 14.792 10.6751C14.792 12.4334 13.3587 13.8584 11.6003 13.8584Z" fill="#292B2E"/>
</svg>
