<svg width="20" height="20" viewBox="0 0 20 20" fill="none" xmlns="http://www.w3.org/2000/svg">
<path d="M11.9585 1.66675H8.0418C7.17513 1.66675 6.4668 2.36675 6.4668 3.23341V4.01675C6.4668 4.88341 7.1668 5.58341 8.03346 5.58341H11.9585C12.8251 5.58341 13.5251 4.88341 13.5251 4.01675V3.23341C13.5335 2.36675 12.8251 1.66675 11.9585 1.66675Z" fill="white"/>
<path d="M14.3662 4.01665C14.3662 5.34165 13.2829 6.42498 11.9579 6.42498H8.04121C6.71621 6.42498 5.63288 5.34165 5.63288 4.01665C5.63288 3.54998 5.13288 3.25832 4.71621 3.47498C3.54121 4.09998 2.74121 5.34165 2.74121 6.76665V14.6083C2.74121 16.6583 4.41621 18.3333 6.46621 18.3333H13.5329C15.5829 18.3333 17.2579 16.6583 17.2579 14.6083V6.76665C17.2579 5.34165 16.4579 4.09998 15.2829 3.47498C14.8662 3.25832 14.3662 3.54998 14.3662 4.01665ZM10.3162 14.125H6.66621C6.32454 14.125 6.04121 13.8417 6.04121 13.5C6.04121 13.1583 6.32454 12.875 6.66621 12.875H10.3162C10.6579 12.875 10.9412 13.1583 10.9412 13.5C10.9412 13.8417 10.6579 14.125 10.3162 14.125ZM12.4995 10.7916H6.66621C6.32454 10.7916 6.04121 10.5083 6.04121 10.1666C6.04121 9.82498 6.32454 9.54165 6.66621 9.54165H12.4995C12.8412 9.54165 13.1245 9.82498 13.1245 10.1666C13.1245 10.5083 12.8412 10.7916 12.4995 10.7916Z" fill="white"/>
</svg>
