<svg width="80" height="80" viewBox="0 0 80 80" fill="none" xmlns="http://www.w3.org/2000/svg">
<rect x="0.5" y="0.5" width="79" height="79" rx="39.5" fill="white"/>
<rect x="0.5" y="0.5" width="79" height="79" rx="39.5" stroke="#E91C24"/>
<path d="M53.6837 33.0335L40.8504 40.4668C40.3337 40.7668 39.6837 40.7668 39.1504 40.4668L26.317 33.0335C25.4004 32.5001 25.167 31.2501 25.867 30.4668C26.3504 29.9168 26.9004 29.4668 27.4837 29.1501L36.517 24.1501C38.4504 23.0668 41.5837 23.0668 43.517 24.1501L52.5504 29.1501C53.1337 29.4668 53.6837 29.9335 54.167 30.4668C54.8337 31.2501 54.6004 32.5001 53.6837 33.0335Z" fill="#E91C24"/>
<path d="M39.0501 43.5666V54.9333C39.0501 56.2 37.7668 57.0333 36.6335 56.4833C33.2001 54.8 27.4168 51.65 27.4168 51.65C25.3835 50.5 23.7168 47.6 23.7168 45.2166V36.6166C23.7168 35.3 25.1001 34.4666 26.2335 35.1166L38.2168 42.0666C38.7168 42.3833 39.0501 42.95 39.0501 43.5666Z" fill="#E91C24"/>
<path d="M40.9492 43.5666V54.9333C40.9492 56.2 42.2326 57.0333 43.3659 56.4833C46.7992 54.8 52.5826 51.65 52.5826 51.65C54.6159 50.5 56.2826 47.6 56.2826 45.2166V36.6166C56.2826 35.3 54.8992 34.4666 53.7659 35.1166L41.7826 42.0666C41.2826 42.3833 40.9492 42.95 40.9492 43.5666Z" fill="#E91C24"/>
</svg>
