<svg width="80" height="80" viewBox="0 0 80 80" fill="none" xmlns="http://www.w3.org/2000/svg">
<rect x="0.5" y="0.5" width="79" height="79" rx="39.5" fill="white"/>
<rect x="0.5" y="0.5" width="79" height="79" rx="39.5" stroke="#E91C24"/>
<path d="M45.3673 30.9167H29.634C29.1673 30.9167 28.734 30.9334 28.334 30.9501C24.384 31.1834 23.334 32.6334 23.334 37.1334V38.1001C23.334 39.0167 24.084 39.7667 25.0007 39.7667H50.0007C50.9173 39.7667 51.6673 39.0167 51.6673 38.1001V37.1334C51.6673 32.1667 50.4007 30.9167 45.3673 30.9167Z" fill="#E91C24"/>
<path d="M25.0007 42.2668C24.084 42.2668 23.334 43.0168 23.334 43.9335V48.7835C23.334 53.7502 24.6007 55.0002 29.634 55.0002H45.3673C50.3173 55.0002 51.6173 53.8002 51.6673 49.0502V43.9335C51.6673 43.0168 50.9173 42.2668 50.0007 42.2668H25.0007ZM31.6007 50.9335H28.7507C28.0673 50.9335 27.5007 50.3668 27.5007 49.6835C27.5007 49.0002 28.0673 48.4335 28.7507 48.4335H31.6173C32.3007 48.4335 32.8673 49.0002 32.8673 49.6835C32.8673 50.3668 32.3007 50.9335 31.6007 50.9335ZM40.9173 50.9335H35.184C34.5007 50.9335 33.934 50.3668 33.934 49.6835C33.934 49.0002 34.5007 48.4335 35.184 48.4335H40.9173C41.6007 48.4335 42.1673 49.0002 42.1673 49.6835C42.1673 50.3668 41.6173 50.9335 40.9173 50.9335Z" fill="#E91C24"/>
<path d="M56.6667 42.2169V33.4836C56.6667 28.2669 53.6833 26.0002 49.1833 26.0002H34.3C33.0334 26.0002 31.9 26.1836 30.9 26.5669C30.1167 26.8502 29.4167 27.2669 28.85 27.8169C28.55 28.1002 28.7834 28.5669 29.2167 28.5669H47.3333C51.0833 28.5669 54.1167 31.6002 54.1167 35.3502V47.3002C54.1167 47.7169 54.5667 47.9502 54.8667 47.6502C56.0167 46.4336 56.6667 44.6502 56.6667 42.2169Z" fill="#E91C24"/>
</svg>
