<svg width="80" height="80" viewBox="0 0 80 80" fill="none" xmlns="http://www.w3.org/2000/svg">
<rect x="0.5" y="0.5" width="79" height="79" rx="39.5" fill="white"/>
<rect x="0.5" y="0.5" width="79" height="79" rx="39.5" stroke="#E91C24"/>
<path d="M55.832 45.8335C56.2987 45.8335 56.6654 46.2002 56.6654 46.6668V48.3335C56.6654 51.1002 54.432 53.3335 51.6654 53.3335C51.6654 50.5835 49.4154 48.3335 46.6654 48.3335C43.9154 48.3335 41.6654 50.5835 41.6654 53.3335H38.332C38.332 50.5835 36.082 48.3335 33.332 48.3335C30.582 48.3335 28.332 50.5835 28.332 53.3335C25.5654 53.3335 23.332 51.1002 23.332 48.3335V45.0002C23.332 44.0835 24.082 43.3335 24.9987 43.3335H40.832C43.132 43.3335 44.9987 41.4668 44.9987 39.1668V30.0002C44.9987 29.0835 45.7487 28.3335 46.6654 28.3335H48.0654C49.2654 28.3335 50.3654 28.9835 50.9654 30.0168L52.032 31.8835C52.182 32.1502 51.982 32.5002 51.6654 32.5002C49.3654 32.5002 47.4987 34.3668 47.4987 36.6668V41.6668C47.4987 43.9668 49.3654 45.8335 51.6654 45.8335H55.832Z" fill="#E91C24"/>
<path d="M33.3333 56.6667C35.1743 56.6667 36.6667 55.1743 36.6667 53.3333C36.6667 51.4924 35.1743 50 33.3333 50C31.4924 50 30 51.4924 30 53.3333C30 55.1743 31.4924 56.6667 33.3333 56.6667Z" fill="#E91C24"/>
<path d="M46.6654 56.6667C48.5063 56.6667 49.9987 55.1743 49.9987 53.3333C49.9987 51.4924 48.5063 50 46.6654 50C44.8244 50 43.332 51.4924 43.332 53.3333C43.332 55.1743 44.8244 56.6667 46.6654 56.6667Z" fill="#E91C24"/>
<path d="M56.6667 40.8833V43.3333H51.6667C50.75 43.3333 50 42.5833 50 41.6667V36.6667C50 35.75 50.75 35 51.6667 35H53.8167L56.2333 39.2333C56.5167 39.7333 56.6667 40.3 56.6667 40.8833Z" fill="#E91C24"/>
<path d="M41.8026 23.3335H29.4859C26.5026 23.3335 24.0026 25.4668 23.4526 28.3002H30.7359C31.3693 28.3002 31.8693 28.8168 31.8693 29.4502C31.8693 30.0835 31.3693 30.5835 30.7359 30.5835H23.3359V32.8835H27.6693C28.3026 32.8835 28.8193 33.4002 28.8193 34.0335C28.8193 34.6668 28.3026 35.1668 27.6693 35.1668H23.3359V37.4668H24.6193C25.2526 37.4668 25.7693 37.9835 25.7693 38.6168C25.7693 39.2502 25.2526 39.7502 24.6193 39.7502H23.3359V40.1335C23.3359 41.0502 24.0859 41.8002 25.0026 41.8002H40.2526C41.9526 41.8002 43.3359 40.4168 43.3359 38.7168V24.8668C43.3359 24.0168 42.6526 23.3335 41.8026 23.3335Z" fill="#E91C24"/>
<path d="M23.4513 28.3H23.2013H21.568C20.9346 28.3 20.418 28.8167 20.418 29.45C20.418 30.0834 20.9346 30.5834 21.568 30.5834H23.0846H23.3346V29.4834C23.3346 29.0834 23.3846 28.6834 23.4513 28.3Z" fill="#E91C24"/>
<path d="M23.0846 32.8835H21.568C20.9346 32.8835 20.418 33.4002 20.418 34.0335C20.418 34.6669 20.9346 35.1669 21.568 35.1669H23.0846H23.3346V32.8835H23.0846Z" fill="#E91C24"/>
<path d="M23.0846 37.4668H21.568C20.9346 37.4668 20.418 37.9835 20.418 38.6168C20.418 39.2501 20.9346 39.7501 21.568 39.7501H23.0846H23.3346V37.4668H23.0846Z" fill="#E91C24"/>
</svg>
