<svg width="80" height="80" viewBox="0 0 80 80" fill="none" xmlns="http://www.w3.org/2000/svg">
<rect x="0.5" y="0.5" width="79" height="79" rx="39.5" fill="white"/>
<rect x="0.5" y="0.5" width="79" height="79" rx="39.5" stroke="#E91C24"/>
<path d="M47.0827 57.5001C48.6935 57.5001 49.9993 56.1942 49.9993 54.5834C49.9993 52.9726 48.6935 51.6667 47.0827 51.6667C45.4719 51.6667 44.166 52.9726 44.166 54.5834C44.166 56.1942 45.4719 57.5001 47.0827 57.5001Z" fill="#E91C24"/>
<path d="M33.7507 57.5001C35.3615 57.5001 36.6673 56.1942 36.6673 54.5834C36.6673 52.9726 35.3615 51.6667 33.7507 51.6667C32.1398 51.6667 30.834 52.9726 30.834 54.5834C30.834 56.1942 32.1398 57.5001 33.7507 57.5001Z" fill="#E91C24"/>
<path d="M28.0673 26.5666L27.734 30.6499C27.6673 31.4333 28.284 32.0833 29.0673 32.0833H54.584C55.284 32.0833 55.8673 31.5499 55.9173 30.8499C56.134 27.8999 53.884 25.4999 50.934 25.4999H30.4507C30.284 24.7666 29.9507 24.0666 29.434 23.4833C28.6007 22.5999 27.434 22.0833 26.234 22.0833H23.334C22.6507 22.0833 22.084 22.6499 22.084 23.3333C22.084 24.0166 22.6507 24.5833 23.334 24.5833H26.234C26.7507 24.5833 27.234 24.7999 27.584 25.1666C27.934 25.5499 28.1007 26.0499 28.0673 26.5666Z" fill="#E91C24"/>
<path d="M54.1828 34.5833H28.6161C27.9161 34.5833 27.3494 35.1166 27.2828 35.7999L26.6828 43.0499C26.4494 45.8999 28.6828 48.3333 31.5328 48.3333H50.0661C52.5661 48.3333 54.7661 46.2833 54.9494 43.7833L55.4994 35.9999C55.5661 35.2333 54.9661 34.5833 54.1828 34.5833Z" fill="#E91C24"/>
</svg>
