<svg width="32" height="32" viewBox="0 0 32 32" fill="none" xmlns="http://www.w3.org/2000/svg">
<path d="M16.667 29.3336H5.44029C3.89362 29.3336 2.62695 28.0936 2.62695 26.5736V6.78697C2.62695 3.29364 5.22695 1.70697 8.41362 3.26697L14.3336 6.17364C15.6136 6.8003 16.667 8.46697 16.667 9.8803V29.3336Z" stroke="#E91C24" stroke-width="2" stroke-linecap="round" stroke-linejoin="round"/>
<path d="M29.2927 20.0802V25.1202C29.2927 28.0002 27.9593 29.3336 25.0793 29.3336H16.666V13.8936L17.2927 14.0269L23.2927 15.3736L25.9993 15.9736C27.7593 16.3602 29.1993 17.2669 29.2793 19.8269C29.2927 19.9069 29.2927 19.9869 29.2927 20.0802Z" stroke="#E91C24" stroke-width="2" stroke-linecap="round" stroke-linejoin="round"/>
<path d="M7.33398 12H11.9607" stroke="#E91C24" stroke-width="2" stroke-linecap="round" stroke-linejoin="round"/>
<path d="M7.33398 17.3335H11.9607" stroke="#E91C24" stroke-width="2" stroke-linecap="round" stroke-linejoin="round"/>
<path d="M23.2949 15.3735V19.6669C23.2949 21.3202 21.9483 22.6669 20.2949 22.6669C18.6416 22.6669 17.2949 21.3202 17.2949 19.6669V14.0269L23.2949 15.3735Z" stroke="#E91C24" stroke-width="2" stroke-linecap="round" stroke-linejoin="round"/>
<path d="M29.2816 19.8269C29.2016 21.4002 27.8949 22.6669 26.2949 22.6669C24.6416 22.6669 23.2949 21.3202 23.2949 19.6669V15.3735L26.0016 15.9735C27.7616 16.3602 29.2016 17.2669 29.2816 19.8269Z" stroke="#E91C24" stroke-width="2" stroke-linecap="round" stroke-linejoin="round"/>
</svg>
