<svg width="32" height="32" viewBox="0 0 32 32" fill="none" xmlns="http://www.w3.org/2000/svg">
<path d="M24.054 18.0668C23.494 18.6135 23.174 19.4002 23.254 20.2402C23.374 21.6802 24.694 22.7335 26.134 22.7335H28.6673V24.3202C28.6673 27.0802 26.414 29.3335 23.654 29.3335H8.34732C5.58732 29.3335 3.33398 27.0802 3.33398 24.3202V15.3468C3.33398 12.5868 5.58732 10.3335 8.34732 10.3335H23.654C26.414 10.3335 28.6673 12.5868 28.6673 15.3468V17.2668H25.974C25.2273 17.2668 24.5473 17.5601 24.054 18.0668Z" stroke="#E91C24" stroke-width="1.5" stroke-linecap="round" stroke-linejoin="round"/>
<path d="M3.33398 16.5467V10.4535C3.33398 8.86681 4.30732 7.45341 5.78732 6.89341L16.374 2.89341C18.0273 2.26675 19.8007 3.49345 19.8007 5.26679V10.3334" stroke="#E91C24" stroke-width="1.5" stroke-linecap="round" stroke-linejoin="round"/>
<path d="M30.0791 18.627V21.3738C30.0791 22.1071 29.4924 22.7071 28.7457 22.7337H26.1324C24.6924 22.7337 23.3724 21.6804 23.2524 20.2404C23.1724 19.4004 23.4924 18.6137 24.0524 18.0671C24.5457 17.5604 25.2257 17.2671 25.9724 17.2671H28.7457C29.4924 17.2938 30.0791 17.8937 30.0791 18.627Z" stroke="#E91C24" stroke-width="1.5" stroke-linecap="round" stroke-linejoin="round"/>
<path d="M9.33398 16H18.6673" stroke="#E91C24" stroke-width="1.5" stroke-linecap="round" stroke-linejoin="round"/>
</svg>
