<svg width="32" height="32" viewBox="0 0 32 32" fill="none" xmlns="http://www.w3.org/2000/svg">
<path d="M15.9993 29.3332C23.3631 29.3332 29.3327 23.3636 29.3327 15.9998C29.3327 8.63604 23.3631 2.6665 15.9993 2.6665C8.63555 2.6665 2.66602 8.63604 2.66602 15.9998C2.66602 23.3636 8.63555 29.3332 15.9993 29.3332Z" stroke="#E91C24" stroke-width="1.5" stroke-linecap="round" stroke-linejoin="round"/>
<path d="M10.6797 19.3464C10.9197 19.7464 11.213 20.1198 11.5463 20.4531C13.9997 22.9065 17.9863 22.9065 20.453 20.4531C21.453 19.4531 22.0263 18.1864 22.213 16.8931" stroke="#E91C24" stroke-width="1.5" stroke-linecap="round" stroke-linejoin="round"/>
<path d="M9.78711 15.1066C9.97378 13.7999 10.5471 12.5465 11.5471 11.5465C14.0005 9.09321 17.9871 9.09321 20.4538 11.5465C20.8004 11.8932 21.0804 12.2666 21.3204 12.6532" stroke="#E91C24" stroke-width="1.5" stroke-linecap="round" stroke-linejoin="round"/>
<path d="M10.4277 22.9067V19.3467H13.9877" stroke="#E91C24" stroke-width="1.5" stroke-linecap="round" stroke-linejoin="round"/>
<path d="M21.5736 9.09326V12.6532H18.0137" stroke="#E91C24" stroke-width="1.5" stroke-linecap="round" stroke-linejoin="round"/>
</svg>
