<svg width="32" height="32" viewBox="0 0 32 32" fill="none" xmlns="http://www.w3.org/2000/svg">
<path d="M26.6673 10.9998V23.9998C26.6673 27.9998 24.2807 29.3332 21.334 29.3332H10.6673C7.72065 29.3332 5.33398 27.9998 5.33398 23.9998V10.9998C5.33398 6.6665 7.72065 5.6665 10.6673 5.6665C10.6673 6.49317 11.0006 7.23983 11.5473 7.7865C12.0939 8.33317 12.8407 8.6665 13.6673 8.6665H18.334C19.9873 8.6665 21.334 7.31984 21.334 5.6665C24.2807 5.6665 26.6673 6.6665 26.6673 10.9998Z" stroke="#E91C24" stroke-width="1.5" stroke-linecap="round" stroke-linejoin="round"/>
<path d="M21.3327 5.6665C21.3327 7.31984 19.986 8.6665 18.3327 8.6665H13.666C12.8393 8.6665 12.0926 8.33317 11.546 7.7865C10.9993 7.23983 10.666 6.49317 10.666 5.6665C10.666 4.01317 12.0127 2.6665 13.666 2.6665H18.3327C19.1593 2.6665 19.9061 2.99984 20.4527 3.54651C20.9994 4.09318 21.3327 4.83984 21.3327 5.6665Z" stroke="#E91C24" stroke-width="1.5" stroke-linecap="round" stroke-linejoin="round"/>
<path d="M10.666 17.3335H15.9993" stroke="#E91C24" stroke-width="1.5" stroke-linecap="round" stroke-linejoin="round"/>
<path d="M10.666 22.6665H21.3327" stroke="#E91C24" stroke-width="1.5" stroke-linecap="round" stroke-linejoin="round"/>
</svg>
