<svg width="32" height="32" viewBox="0 0 32 32" fill="none" xmlns="http://www.w3.org/2000/svg">
<path d="M19.9993 2.6665V15.9998C19.9993 17.4665 18.7993 18.6665 17.3327 18.6665H2.66602V7.99984C2.66602 5.05317 5.05268 2.6665 7.99935 2.6665H19.9993Z" stroke="#E91C24" stroke-width="1.5" stroke-linecap="round" stroke-linejoin="round"/>
<path d="M29.3327 18.6665V22.6665C29.3327 24.8798 27.546 26.6665 25.3327 26.6665H23.9993C23.9993 25.1998 22.7993 23.9998 21.3327 23.9998C19.866 23.9998 18.666 25.1998 18.666 26.6665H13.3327C13.3327 25.1998 12.1327 23.9998 10.666 23.9998C9.19935 23.9998 7.99935 25.1998 7.99935 26.6665H6.66602C4.45268 26.6665 2.66602 24.8798 2.66602 22.6665V18.6665H17.3327C18.7993 18.6665 19.9993 17.4665 19.9993 15.9998V6.6665H22.4527C23.4127 6.6665 24.2927 7.18652 24.7727 8.01318L27.0527 11.9998H25.3327C24.5993 11.9998 23.9993 12.5998 23.9993 13.3332V17.3332C23.9993 18.0665 24.5993 18.6665 25.3327 18.6665H29.3327Z" stroke="#E91C24" stroke-width="1.5" stroke-linecap="round" stroke-linejoin="round"/>
<path d="M10.6667 29.3333C12.1394 29.3333 13.3333 28.1394 13.3333 26.6667C13.3333 25.1939 12.1394 24 10.6667 24C9.19391 24 8 25.1939 8 26.6667C8 28.1394 9.19391 29.3333 10.6667 29.3333Z" stroke="#E91C24" stroke-width="1.5" stroke-linecap="round" stroke-linejoin="round"/>
<path d="M21.3327 29.3333C22.8054 29.3333 23.9993 28.1394 23.9993 26.6667C23.9993 25.1939 22.8054 24 21.3327 24C19.8599 24 18.666 25.1939 18.666 26.6667C18.666 28.1394 19.8599 29.3333 21.3327 29.3333Z" stroke="#E91C24" stroke-width="1.5" stroke-linecap="round" stroke-linejoin="round"/>
<path d="M29.3333 16V18.6667H25.3333C24.6 18.6667 24 18.0667 24 17.3333V13.3333C24 12.6 24.6 12 25.3333 12H27.0533L29.3333 16Z" stroke="#E91C24" stroke-width="1.5" stroke-linecap="round" stroke-linejoin="round"/>
</svg>
