<svg width="48" height="48" viewBox="0 0 48 48" fill="none" xmlns="http://www.w3.org/2000/svg">
<rect width="48" height="48" rx="24" fill="#E3EBFD"/>
<path d="M31.3077 30.2751C31.3077 30.5751 31.241 30.8834 31.0993 31.1834C30.9577 31.4834 30.7744 31.7667 30.5327 32.0334C30.1244 32.4834 29.6743 32.8084 29.166 33.0167C28.666 33.2251 28.1244 33.3334 27.541 33.3334C26.691 33.3334 25.7827 33.1334 24.8243 32.7251C23.866 32.3167 22.9077 31.7667 21.9577 31.0751C20.9993 30.3751 20.091 29.6001 19.2243 28.7417C18.366 27.8751 17.591 26.9667 16.8993 26.0167C16.216 25.0667 15.666 24.1167 15.266 23.1751C14.866 22.2251 14.666 21.3167 14.666 20.4501C14.666 19.8834 14.766 19.3417 14.966 18.8417C15.166 18.3334 15.4827 17.8667 15.9243 17.4501C16.4577 16.9251 17.041 16.6667 17.6577 16.6667C17.891 16.6667 18.1243 16.7167 18.3327 16.8167C18.5493 16.9167 18.741 17.0667 18.891 17.2834L20.8243 20.0084C20.9743 20.2167 21.0827 20.4084 21.1577 20.5917C21.2327 20.7667 21.2743 20.9417 21.2743 21.1001C21.2743 21.3001 21.216 21.5001 21.0993 21.6917C20.991 21.8834 20.8327 22.0834 20.6327 22.2834L19.9993 22.9417C19.9077 23.0334 19.866 23.1417 19.866 23.2751C19.866 23.3417 19.8743 23.4001 19.891 23.4667C19.916 23.5334 19.941 23.5834 19.9577 23.6334C20.1077 23.9084 20.366 24.2667 20.7327 24.7001C21.1077 25.1334 21.5077 25.5751 21.941 26.0167C22.391 26.4584 22.8243 26.8667 23.266 27.2417C23.6993 27.6084 24.0577 27.8584 24.341 28.0084C24.3827 28.0251 24.4327 28.0501 24.491 28.0751C24.5577 28.1001 24.6243 28.1084 24.6993 28.1084C24.841 28.1084 24.9493 28.0584 25.041 27.9667L25.6743 27.3417C25.8827 27.1334 26.0827 26.9751 26.2743 26.8751C26.466 26.7584 26.6577 26.7001 26.866 26.7001C27.0243 26.7001 27.191 26.7334 27.3743 26.8084C27.5577 26.8834 27.7494 26.9917 27.9577 27.1334L30.716 29.0917C30.9327 29.2417 31.0827 29.4167 31.1743 29.6251C31.2577 29.8334 31.3077 30.0417 31.3077 30.2751Z" stroke="#E91C24" stroke-width="1.2" stroke-miterlimit="10"/>
<path d="M28.4167 22.5002C28.4167 22.0002 28.025 21.2335 27.4417 20.6085C26.9083 20.0335 26.2 19.5835 25.5 19.5835" stroke="#E91C24" stroke-width="1.2" stroke-linecap="round" stroke-linejoin="round"/>
<path d="M31.3333 22.5001C31.3333 19.2751 28.725 16.6667 25.5 16.6667" stroke="#E91C24" stroke-width="1.2" stroke-linecap="round" stroke-linejoin="round"/>
</svg>
