<svg width="64" height="63" viewBox="0 0 64 63" fill="none" xmlns="http://www.w3.org/2000/svg">
<g clip-path="url(#clip0_2895_12447)">
<path d="M63.6377 31.6794C63.6377 31.951 63.6377 32.2333 63.6377 32.4942L63.6054 33.3054C63.5435 34.6544 63.3888 35.9976 63.1424 37.3256C63.0527 37.8259 62.963 38.3083 62.8302 38.8301C62.762 39.1409 62.6795 39.4626 62.6005 39.7627L62.5 40.1201C62.4605 40.2702 62.4103 40.4203 62.3672 40.5596C62.2057 41.1528 62.0083 41.7532 61.8145 42.2749L61.6638 42.6966L61.5131 43.0968C61.2511 43.7579 61.0286 44.269 60.8168 44.73C60.7103 44.9931 60.5905 45.2507 60.4579 45.5018C60.3391 45.7736 60.2049 46.0385 60.056 46.2952C59.715 46.9455 59.3633 47.5673 59.0619 48.0819C58.8286 48.4393 58.5881 48.8252 58.3441 49.1861C58.3261 49.2147 58.2759 49.2862 58.2436 49.3255C57.4551 50.5074 56.5807 51.6301 55.6273 52.6846C54.8629 53.528 54.0948 54.307 53.3412 55.0003C53.09 55.229 52.8064 55.4827 52.5265 55.715L51.4678 56.5762C51.2273 56.7692 50.9833 56.9586 50.75 57.1408C50.0645 57.6197 49.3396 58.1307 48.5967 58.5917L48.3957 58.7239L48.3455 58.7525L48.2521 58.8132L48.0619 58.924C47.8304 59.074 47.5908 59.2112 47.3442 59.335C45.8506 60.1757 44.2901 60.8928 42.6786 61.4791L42.2228 61.6363L41.8639 61.7578L41.7957 61.79C41.7404 61.7962 41.6862 61.8094 41.6342 61.8293C41.5776 61.8458 41.5201 61.8589 41.462 61.8686L41.2897 61.9401C41.2205 61.9648 41.1498 61.9851 41.078 62.0008C41.0268 62.0217 40.974 62.0385 40.92 62.0508L40.6042 62.1402L40.3638 62.2081C39.9618 62.3081 39.5491 62.4189 39.0754 62.5297C38.9246 62.569 38.7739 62.6012 38.6232 62.6297L38.5406 62.6512C38.2104 62.7191 37.8767 62.7906 37.5537 62.8406C37.3742 62.8799 37.1948 62.9013 37.0297 62.9299L36.8108 62.9728C35.8238 63.1229 34.9876 63.2229 34.2017 63.273C33.972 63.2908 33.7602 63.3016 33.5377 63.3016C33.3152 63.3016 33.0963 63.3337 32.8738 63.3337C32.5723 63.3337 32.2385 63.3337 31.9048 63.3337C31.571 63.3337 31.2731 63.3337 30.9788 63.3337H30.8712C30.4261 63.3337 29.9919 63.3016 29.5612 63.273L29.4787 63.2515C29.1964 63.2464 28.9147 63.2237 28.6353 63.1836L28.3805 63.1515C28.2972 63.1405 28.2133 63.1345 28.1293 63.1336L28.0001 63.1015C27.8278 63.1015 27.616 63.0621 27.4043 63.03L27.1926 63.0014C26.9839 62.9749 26.7766 62.9379 26.5717 62.8906C26.2703 62.8689 25.9707 62.8283 25.6745 62.7691C25.4326 62.7326 25.1929 62.6825 24.9567 62.619C24.8454 62.5976 24.7342 62.5797 24.6229 62.5476C24.343 62.4868 24.081 62.4296 23.8477 62.3582L23.6898 62.3189L23.1156 62.1688L22.972 62.1259C22.7926 62.0687 22.5808 62.008 22.3978 61.9579C22.2901 61.9258 22.1574 61.8757 22.0389 61.8364C21.8379 61.7864 21.6047 61.7078 21.375 61.6256C20.8295 61.4362 20.3486 61.2432 19.9143 61.0753C18.9381 60.6822 18.1199 60.3034 17.3159 59.8924C16.8637 59.6602 16.4115 59.4207 15.9665 59.1777L15.7045 59.0169C15.4425 58.8668 15.1913 58.7239 14.9509 58.5666L14.6566 58.3844C14.2977 58.1557 13.9137 57.8948 13.5512 57.634C13.1887 57.3731 12.898 57.173 12.4745 56.8406C12.4339 56.8227 12.3964 56.7986 12.3633 56.7692L12.2736 56.7084L12.191 56.6298C11.929 56.4297 11.6993 56.2403 11.4732 56.0473L11.2615 55.8686C10.96 55.5899 10.6011 55.2647 10.1884 54.9074L9.60702 54.357C9.09381 53.846 8.64879 53.385 8.2576 52.9276C8.12481 52.7954 7.99561 52.6453 7.85205 52.4952L7.49316 52.0736L8.51959 46.5203L11.6491 29.5353L14.269 15.2805H46.4685L45.5641 20.2334H18.3065L15.8481 33.5484H43.1057L42.1797 38.5513H14.9329L12.7545 50.4547C12.9323 50.6457 13.1204 50.8271 13.3179 50.9979C13.38 51.066 13.4472 51.1294 13.5189 51.1873C13.9316 51.5804 14.2367 51.8198 14.4987 52.0593C14.8576 52.3523 15.1626 52.6132 15.5251 52.8812C15.8266 53.1242 16.1567 53.3636 16.5802 53.653C16.8366 53.8383 17.1025 54.0101 17.377 54.1676C17.5492 54.2963 17.6892 54.3856 17.8292 54.475C18.2742 54.7358 18.6654 54.9681 19.0566 55.1897L19.7743 55.5685L19.9753 55.6721C20.2481 55.8115 20.5101 55.9294 20.772 56.0509C20.8006 56.0587 20.8283 56.0695 20.8546 56.083L20.9228 56.1116C21.0657 56.1837 21.2146 56.2435 21.3678 56.2903C21.5656 56.3903 21.7708 56.4751 21.9815 56.544C22.1811 56.636 22.386 56.7159 22.5952 56.7835C22.7459 56.8442 22.8967 56.8942 23.0366 56.9443L23.2197 57.005C23.5786 57.1337 23.9374 57.2444 24.3358 57.3624C25.6692 57.7424 27.0297 58.0207 28.4056 58.195C28.7968 58.245 29.2203 58.2951 29.7048 58.3344C30.7795 58.4137 31.8578 58.434 32.9348 58.3951C33.2578 58.3951 33.57 58.363 33.8822 58.3344C34.1263 58.3129 34.3452 58.2951 34.5785 58.2629H34.7292C34.8907 58.2557 35.0515 58.2366 35.2101 58.2057C35.2818 58.204 35.3529 58.1932 35.4219 58.1736C35.6217 58.1574 35.8205 58.1311 36.0176 58.0949L36.1468 58.0735C36.4411 58.0342 36.7031 57.9842 36.9723 57.9341L37.2845 57.8627C37.6183 57.8019 37.9305 57.734 38.232 57.6518L39.1902 57.4124C40.4476 57.0427 41.6789 56.5903 42.876 56.058L43.0052 55.9866C43.1667 55.9187 43.3067 55.8472 43.4466 55.7865C43.9024 55.5685 44.2828 55.3755 44.6274 55.1861L45.0186 54.9753L45.1908 54.8752C45.7256 54.5643 46.2675 54.232 46.8202 53.8532L47.1145 53.653C47.2831 53.5315 47.4446 53.4208 47.6061 53.2957C48.4135 52.7075 49.1875 52.0752 49.9246 51.4017C50.0645 51.2731 50.2045 51.1623 50.3373 51.0229C50.4701 50.8836 50.6675 50.712 50.8074 50.5691C51.7199 49.6626 52.5655 48.6916 53.3376 47.6638C53.4955 47.453 53.657 47.2421 53.7898 47.042L53.8293 46.992C54.0195 46.7097 54.1882 46.4381 54.382 46.1594C54.4069 46.1206 54.4344 46.0836 54.4645 46.0486C54.4792 46.0219 54.4924 45.9945 54.504 45.9664C54.705 45.6662 54.8629 45.4161 55.0064 45.1659C55.3653 44.5763 55.5627 44.1939 55.7421 43.8437C55.8642 43.5936 56.0041 43.3327 56.101 43.0897C56.2625 42.7502 56.4133 42.4179 56.5532 42.0784C56.6452 41.8851 56.7267 41.6871 56.7973 41.4852L56.8583 41.3458C56.909 41.2357 56.9521 41.1222 56.9875 41.0063L57.21 40.3953C57.2602 40.2416 57.3105 40.1129 57.35 39.9629L57.4002 39.8235C57.4187 39.7515 57.4427 39.681 57.472 39.6127L57.5115 39.4626C57.5904 39.2303 57.6514 38.9909 57.7232 38.7479C57.9242 37.9974 58.0821 37.2541 58.2472 36.4215C58.3082 36.1213 58.3477 35.8712 58.3872 35.6317L58.4374 35.2744C58.4661 35.0314 58.4984 34.7634 58.5271 34.5025L58.5487 34.2416C58.5702 34.1094 58.5774 33.9808 58.5881 33.8486L58.6097 33.459C58.6276 33.2196 58.6384 32.9766 58.6491 32.7443C58.6707 32.387 58.6707 32.0296 58.6707 31.6723C58.6707 31.3149 58.6707 30.9004 58.6491 30.5323C58.6491 30.2214 58.6204 29.9284 58.5881 29.6282C58.5558 29.328 58.5487 29.0564 58.5199 28.7956C58.4912 28.5347 58.4589 28.2167 58.4195 27.9344V27.8557C58.319 27.2232 58.2077 26.6122 58.0606 25.9975C57.9924 25.6687 57.9098 25.3364 57.8309 25.0184C57.7699 24.7754 57.7089 24.5538 57.6407 24.3036C57.5332 23.8995 57.405 23.5012 57.2567 23.1101L57.2351 23.0208C57.2319 22.9963 57.2258 22.9724 57.2172 22.9493L57.1562 22.7992V22.7385L58.6563 14.5801L60.2749 17.4961L61.1004 19.2828C61.2331 19.5937 61.3946 19.9618 61.5238 20.3549C61.5633 20.455 61.6064 20.5657 61.6459 20.6765C61.6853 20.7873 61.7356 20.9159 61.7751 21.0339L61.8074 21.0946C61.9689 21.5735 62.1663 22.0773 62.2811 22.5491L62.4821 23.2387C62.7493 24.1798 62.9673 25.134 63.1353 26.0976C63.1676 26.2477 63.1963 26.4299 63.225 26.6086L63.2465 26.7587C63.286 26.9695 63.3183 27.1911 63.347 27.409L63.3865 27.7664C63.4188 27.9987 63.4475 28.231 63.469 28.4597C63.4977 28.742 63.5193 29.0422 63.5372 29.3316V29.4209C63.5875 30.2143 63.6198 30.9754 63.6198 31.6866" fill="white"/>
<path d="M56.1445 11.2855L52.7817 29.5713L49.3795 48.0893H17.1764L18.0844 43.1471H45.3599L47.8147 29.7714H20.55L21.4364 24.9614L21.4759 24.7613H48.7227L50.9083 12.8972C50.7181 12.697 50.5279 12.5184 50.3449 12.3576L50.2157 12.2289C50.1812 12.1928 50.144 12.1594 50.1044 12.1289C49.4794 11.5459 48.8242 10.996 48.1413 10.4815C47.796 10.2037 47.4367 9.94364 47.0647 9.70243C46.8027 9.50946 46.5407 9.34508 46.2823 9.16997L46.0598 9.02702L45.9485 8.95914C45.6076 8.7483 45.263 8.54818 44.94 8.37665C44.8001 8.28731 44.6996 8.23728 44.6206 8.18725C44.2617 8.005 43.9746 7.84776 43.6516 7.68695C43.4506 7.58332 43.2389 7.49399 43.0379 7.40465L42.8585 7.32603C42.4996 7.1545 42.1012 6.96868 41.649 6.81144C41.4373 6.72211 41.2363 6.64348 41.0461 6.58273C40.8559 6.52198 40.6334 6.42193 40.4396 6.36118C39.4193 6.0143 38.3776 5.73378 37.3208 5.52139L37.0373 5.46065C36.926 5.43921 36.8148 5.41062 36.7035 5.39989L35.9858 5.26768L35.7848 5.23909C35.6448 5.21765 35.5013 5.19978 35.3613 5.18906H35.2321C34.7978 5.12116 34.3851 5.07828 33.8504 5.03898C32.8023 4.95209 31.7496 4.93537 30.6993 4.98894C30.3871 4.98894 30.0964 5.01753 29.7949 5.03898C29.4935 5.06042 29.2602 5.07828 29.0377 5.11044H28.8654C28.7147 5.12831 28.5639 5.13903 28.4132 5.16762H28.3235C28.2866 5.16234 28.2491 5.16234 28.2122 5.16762L27.8785 5.21765C27.7506 5.23097 27.6236 5.25125 27.498 5.2784C27.0709 5.33273 26.6468 5.40907 26.2276 5.50711C25.9153 5.56786 25.6534 5.6286 25.4129 5.70007C25.1724 5.77154 24.9715 5.81085 24.7597 5.86088L24.4583 5.9395C23.1961 6.30523 21.9609 6.75777 20.7617 7.29387C20.6397 7.3439 20.5284 7.40464 20.4028 7.45467L20.2305 7.54401C19.7784 7.75485 19.3549 7.97641 18.9314 8.20512C18.7699 8.28731 18.6191 8.37665 18.4576 8.46599C17.8439 8.82334 17.2984 9.15925 16.796 9.49873C16.6847 9.57735 16.5663 9.65955 16.4371 9.73816L16.0244 10.0312C15.2092 10.6205 14.4291 11.2565 13.688 11.9359L13.487 12.1253C13.4153 12.186 13.3471 12.2575 13.2645 12.3254L12.8123 12.7578C12.2381 13.3296 11.6854 13.9406 11.1722 14.5446C10.6618 15.155 10.1827 15.7907 9.73665 16.4493C9.57515 16.6708 9.42441 16.8924 9.28086 17.1104C9.2019 17.2211 9.16242 17.3033 9.11218 17.3712C8.92915 17.6535 8.77841 17.9037 8.62768 18.1645C8.32621 18.6863 8.09294 19.108 7.89196 19.4867L7.84171 19.5975C7.73046 19.8191 7.62279 20.0299 7.51871 20.2586C7.3608 20.616 7.20648 20.9305 7.06652 21.2521C7.0378 21.3307 7.0055 21.4022 6.97679 21.4844C6.91993 21.5993 6.8731 21.7188 6.83683 21.8417L6.79735 21.9525C6.70404 22.1526 6.63585 22.3313 6.56407 22.5314L6.45282 22.8137C6.43128 22.903 6.3918 23.0031 6.36309 23.1139L6.27337 23.3855C6.22703 23.4726 6.1955 23.5668 6.18006 23.6642C6.06881 23.9965 5.98985 24.2753 5.91807 24.5361C5.91749 24.5782 5.90769 24.6197 5.88936 24.6576C5.67762 25.4403 5.53047 26.1514 5.38692 26.8839L5.35462 26.984C5.31514 27.2234 5.27566 27.4843 5.24336 27.7452L5.20388 28.0453C5.17517 28.2669 5.14287 28.4777 5.12493 28.6886L5.08186 29.0102C5.08186 29.1996 5.04238 29.3318 5.04238 29.4712C5.01367 29.8607 4.98137 30.2323 4.9742 30.5933C4.96702 30.9542 4.95266 31.308 4.95266 31.6653C4.95266 32.0227 4.95266 32.4408 4.9742 32.8196C4.9742 33.1198 5.00291 33.4199 5.03521 33.713C5.04166 33.9885 5.06805 34.2631 5.11416 34.5349C5.11416 34.7457 5.15364 34.9351 5.17517 35.1174C5.17517 35.2246 5.20388 35.3354 5.21465 35.4461C5.31514 36.1287 5.4264 36.729 5.57354 37.3401C5.64532 37.6724 5.72427 38.0048 5.80682 38.3228C5.86092 38.5504 5.92802 38.7747 6.00779 38.9946C6.11905 39.3984 6.24107 39.838 6.3918 40.2275V40.2883C6.39697 40.3197 6.40416 40.3507 6.41334 40.3812L6.48512 40.5313L4.9742 48.7111L4.3282 47.6176C3.51153 46.223 2.80132 44.7692 2.20357 43.2686C2.13539 43.0971 2.06361 42.9112 1.99183 42.7147C1.70113 41.975 1.48939 41.3032 1.33865 40.7993C1.31712 40.7314 1.30994 40.6814 1.28841 40.6206C1.26347 40.542 1.2431 40.4621 1.2274 40.3812L1.13768 40.1275C0.379971 37.375 -0.00268262 34.5336 -1.26467e-06 31.6796C-1.26467e-06 31.4116 -1.26467e-06 31.1293 -1.26467e-06 30.8684C-1.26467e-06 30.6076 0.0179434 30.2967 0.0394767 30.0465C0.0712969 29.2095 0.145561 28.3746 0.261987 27.5451C0.261987 27.4021 0.301466 27.2627 0.322999 27.1234L0.373243 26.8018C0.412721 26.5409 0.452198 26.2693 0.51321 26.0084C0.592165 25.4974 0.692654 24.9971 0.814676 24.5147C0.886454 24.2145 0.96541 23.9036 1.04795 23.5927C1.1305 23.2818 1.18792 23.0531 1.26688 22.7708C2.1915 19.6432 3.59836 16.6776 5.43716 13.9799C5.66685 13.6226 5.91089 13.2974 6.15494 12.9651L6.53895 12.454C6.6179 12.3647 6.67892 12.2754 6.75069 12.1825L6.9086 11.9716C7.21366 11.6143 7.54384 11.1926 7.98527 10.7209L8.27597 10.3635C8.59897 10.024 8.9112 9.70243 9.22344 9.38081C9.70794 8.89124 10.2606 8.38023 11.0179 7.71912L11.9833 6.91508C12.3063 6.66493 12.6185 6.42551 12.9308 6.20037C13.8244 5.56071 14.4812 5.1283 15.1056 4.72807C15.6296 4.39573 16.15 4.10628 16.5412 3.88472C17.5115 3.34865 18.5134 2.87132 19.5415 2.45531L20.2593 2.17658C20.4782 2.08366 20.6827 2.00505 20.8909 1.92286C20.9734 1.89427 21.0632 1.86568 21.1637 1.8228L21.3467 1.76205C21.6482 1.65484 21.9604 1.55478 22.2619 1.46187L22.3731 1.43328C22.5956 1.35108 22.8576 1.28319 23.0909 1.21172C23.9271 0.961572 24.6521 0.800766 25.2442 0.679266C25.5385 0.611369 25.8507 0.561339 26.1702 0.51131L26.3209 0.472006C26.3925 0.463224 26.4633 0.448877 26.5326 0.429115C26.6385 0.426412 26.7435 0.409591 26.8449 0.379091C27.8641 0.229003 28.7075 0.139666 29.4755 0.0896363C29.6944 0.0681951 29.9385 0.0610424 30.1682 0.0503218C30.3794 0.0320985 30.5914 0.0249425 30.8034 0.0288815C31.4478 -0.00506986 32.0935 -0.00506986 32.7378 0.0288815C32.9388 0.0288815 33.1792 0.0288806 33.4305 0.0503218C33.6817 0.0717629 34.0155 0.0789148 34.3277 0.111077C34.5574 0.111077 34.8122 0.139666 35.0455 0.168254C35.2787 0.196843 35.4044 0.20041 35.6305 0.228998C35.8566 0.257586 36.1652 0.300468 36.4164 0.339777H36.4559C36.7179 0.379086 36.9368 0.421967 37.1486 0.450555C37.3603 0.479144 37.6438 0.539899 37.9058 0.579208L38.6487 0.750741L38.9215 0.800765L39.3055 0.900823C39.4527 0.927269 39.5979 0.964292 39.7397 1.0116C40.3714 1.17241 40.9779 1.34394 41.5342 1.52261C41.8141 1.61195 42.0976 1.70487 42.3812 1.80493L42.7221 1.92286L43.3466 2.17658L43.6086 2.25519L44.0823 2.46603C44.373 2.58753 44.6565 2.71618 44.958 2.82338C45.3815 3.01278 45.7942 3.22362 46.2069 3.42373L46.2679 3.45233C46.6986 3.67389 47.0934 3.89545 47.5133 4.12415L47.6245 4.1849C47.8363 4.3064 48.048 4.4279 48.249 4.54225L48.9452 4.97464C49.218 5.1426 49.4871 5.332 49.7707 5.52497L49.9932 5.67506C50.3951 5.95737 50.7756 6.22538 51.1488 6.51841C51.2098 6.56844 51.2924 6.62919 51.3713 6.68637L51.4431 6.74712C51.7338 6.9794 52.0245 7.21883 52.326 7.46183C52.6274 7.70483 52.832 7.89422 53.0617 8.09434C53.1756 8.20772 53.2954 8.31507 53.4206 8.41595C53.5498 8.5446 53.6718 8.65538 53.7795 8.77331L54.0127 8.98414C54.5152 9.47372 54.9674 9.95614 55.3622 10.4136C55.5631 10.6244 55.7641 10.8567 55.9651 11.0961L56.1445 11.2855Z" fill="white"/>
</g>
<defs>
<clipPath id="clip0_2895_12447">
<rect width="64" height="63" fill="white"/>
</clipPath>
</defs>
</svg>
